<svg xmlns="http://www.w3.org/2000/svg" width="83.002" height="83.002" viewBox="0 0 83.002 83.002"><defs><style>.a{fill:#ec3237;}</style></defs><g transform="translate(-2 -2)"><path class="a" d="M25,44H44.367v2.767H25Z" transform="translate(8.817 16.101)"/><path class="a" d="M21,44h2.767v2.767H21Z" transform="translate(7.284 16.101)"/><path class="a" d="M83.619,7.533H64.251V6.15A4.163,4.163,0,0,0,60.1,2H26.9a4.163,4.163,0,0,0-4.15,4.15v5.533H3.383A1.383,1.383,0,0,0,2,13.067v16.6a1.383,1.383,0,0,0,1.383,1.383H22.75v2.767a6.917,6.917,0,0,0-6.917,6.917v5.658L18.6,75.374v8.245A1.383,1.383,0,0,0,19.984,85H50.418A1.383,1.383,0,0,0,51.8,83.619V75.761l5.146-7.36H60.1a4.163,4.163,0,0,0,4.15-4.15V62.868h1.383a5.513,5.513,0,0,0,3.624-9.684,5.466,5.466,0,0,0,0-8.3,5.466,5.466,0,0,0,0-8.3A5.513,5.513,0,0,0,65.635,26.9H64.251V24.134H83.619A1.383,1.383,0,0,0,85,22.75V8.917A1.383,1.383,0,0,0,83.619,7.533ZM54.181,4.767l-.429,1.715A1.383,1.383,0,0,1,52.41,7.533H34.592A1.383,1.383,0,0,1,33.25,6.482l-.429-1.715ZM4.767,28.284V14.45h24.9V28.284ZM49.034,82.235H21.367V76.7H49.034Zm.664-8.3H21.243L18.6,46.268V40.734a4.163,4.163,0,0,1,4.15-4.15h9.684a4.15,4.15,0,1,1,0,8.3h-8.3a1.383,1.383,0,0,0-1.383,1.383V64.251A4.163,4.163,0,0,0,26.9,68.4H53.572Zm11.786-9.684A1.383,1.383,0,0,1,60.1,65.635H26.9a1.383,1.383,0,0,1-1.383-1.383v-16.6h6.917a6.917,6.917,0,1,0,0-13.834H25.517V31.051h5.533a1.383,1.383,0,0,0,1.383-1.383v-16.6a1.383,1.383,0,0,0-1.383-1.383H25.517V6.15A1.383,1.383,0,0,1,26.9,4.767h3.071l.595,2.393a4.15,4.15,0,0,0,4.026,3.14H52.41a4.15,4.15,0,0,0,4.026-3.14l.595-2.393H60.1A1.383,1.383,0,0,1,61.485,6.15V7.533H58.718a1.383,1.383,0,0,0-1.383,1.383V22.75a1.383,1.383,0,0,0,1.383,1.383h2.767V26.9H60.1a5.513,5.513,0,0,0-3.624,9.684,5.466,5.466,0,0,0,0,8.3,5.466,5.466,0,0,0,0,8.3A5.513,5.513,0,0,0,60.1,62.868h1.383Zm4.15-4.15H60.1a2.767,2.767,0,0,1,0-5.533h5.533a2.767,2.767,0,0,1,0,5.533Zm0-8.3H60.1a2.767,2.767,0,1,1,0-5.533h5.533a2.767,2.767,0,1,1,0,5.533Zm0-8.3H60.1a2.767,2.767,0,1,1,0-5.533h5.533a2.767,2.767,0,1,1,0,5.533Zm0-13.834a2.767,2.767,0,0,1,0,5.533H60.1a2.767,2.767,0,0,1,0-5.533Zm16.6-8.3H60.1V10.3H82.235Z" transform="translate(0 0)"/><path class="a" d="M6,13H8.767v2.767H6Z" transform="translate(1.533 4.217)"/><path class="a" d="M10,13H23.834v2.767H10Z" transform="translate(3.067 4.217)"/><path class="a" d="M6,17H25.367v2.767H6Z" transform="translate(1.533 5.75)"/><path class="a" d="M46,11h5.533v2.767H46Z" transform="translate(16.868 3.45)"/><path class="a" d="M52,11h8.3v2.767H52Z" transform="translate(19.168 3.45)"/></g></svg>