<svg xmlns="http://www.w3.org/2000/svg" width="81.163" height="82.516" viewBox="0 0 81.163 82.516"><defs><style>.a{fill:#ec3237;}</style></defs><g transform="translate(-2 -1)"><path class="a" d="M49.345,61.76H46.639V48.5a1.353,1.353,0,1,0-2.705,0V61.76H8.764V34.705H20.018a1.353,1.353,0,0,0,0-2.705H7.411a1.353,1.353,0,0,0-1.353,1.353V61.76H3.353A1.353,1.353,0,0,0,2,63.112v2.705a6.764,6.764,0,0,0,6.764,6.764h35.17A6.764,6.764,0,0,0,50.7,65.818V63.112A1.353,1.353,0,0,0,49.345,61.76Zm-1.353,4.058a4.058,4.058,0,0,1-4.058,4.058H41.229V68.523a1.353,1.353,0,0,0-2.705,0v1.353H14.174V68.523a1.353,1.353,0,0,0-2.705,0v1.353H8.764a4.058,4.058,0,0,1-4.058-4.058V64.465H47.992Z" transform="translate(0 10.934)"/><path class="a" d="M55.764,8.705h2.705a1.353,1.353,0,0,0,0-2.705H55.764a4.058,4.058,0,0,0-4.058,4.058v1.353H50.353a1.353,1.353,0,1,0,0,2.705h1.353v4.058a1.353,1.353,0,1,0,2.705,0V14.116h1.353a1.353,1.353,0,1,0,0-2.705H54.411V10.058A1.353,1.353,0,0,1,55.764,8.705Z" transform="translate(16.577 1.764)"/><path class="a" d="M64.291,2H48.058A4.058,4.058,0,0,0,44,6.058V8.764a1.353,1.353,0,1,0,2.705,0V6.058a1.353,1.353,0,0,1,1.353-1.353H64.291a1.353,1.353,0,0,1,1.353,1.353V22.291a1.353,1.353,0,0,1-1.353,1.353H48.058a1.353,1.353,0,0,1-1.353-1.353V14.174a1.353,1.353,0,1,0-2.705,0v8.116a4.058,4.058,0,0,0,4.058,4.058H64.291a4.058,4.058,0,0,0,4.058-4.058V6.058A4.058,4.058,0,0,0,64.291,2Z" transform="translate(14.814 0.353)"/><path class="a" d="M49,43.411A5.411,5.411,0,1,0,54.411,38,5.411,5.411,0,0,0,49,43.411Zm8.116,0a2.705,2.705,0,1,1-2.705-2.705A2.705,2.705,0,0,1,57.116,43.411Z" transform="translate(16.577 13.05)"/><path class="a" d="M64.291,33H48.058A4.058,4.058,0,0,0,44,37.058V53.291a4.058,4.058,0,0,0,4.058,4.058H64.291a4.058,4.058,0,0,0,4.058-4.058V50.585a1.353,1.353,0,0,0-2.705,0v2.705a1.353,1.353,0,0,1-1.353,1.353H48.058a1.353,1.353,0,0,1-1.353-1.353V37.058a1.353,1.353,0,0,1,1.353-1.353H64.291a1.353,1.353,0,0,1,1.353,1.353v8.116a1.353,1.353,0,0,0,2.705,0V37.058A4.058,4.058,0,0,0,64.291,33Z" transform="translate(14.814 11.287)"/><path class="a" d="M24.636,16.618a1.346,1.346,0,0,0,1.326.054l8.116-4.058a1.353,1.353,0,0,0,0-2.408L25.961,6.148A1.353,1.353,0,0,0,24,7.352v8.116A1.353,1.353,0,0,0,24.636,16.618Zm2.07-7.075,3.733,1.867-3.733,1.867Z" transform="translate(7.76 1.765)"/><path class="a" d="M30.174,25.349A12.174,12.174,0,1,0,18,13.174,12.174,12.174,0,0,0,30.174,25.349Zm0-21.643a9.469,9.469,0,1,1-9.469,9.469,9.469,9.469,0,0,1,9.469-9.469Z" transform="translate(5.643)"/><path class="a" d="M37.353,25.116a1.353,1.353,0,0,0,1.082-.541l4.058-5.411a1.353,1.353,0,1,0-2.164-1.623l-4.058,5.411a1.353,1.353,0,0,0,1.082,2.164Z" transform="translate(11.992 5.643)"/><path class="a" d="M39.271,28.222a1.353,1.353,0,0,0,1.894.271l5.411-4.058a1.353,1.353,0,1,0-1.623-2.164l-5.411,4.058a1.353,1.353,0,0,0-.271,1.894Z" transform="translate(13.05 7.407)"/><path class="a" d="M51.506,29.09a1.353,1.353,0,0,0-1.623-1.082l-6.764,1.353a1.359,1.359,0,0,0,.271,2.705h.271l6.764-1.353a1.353,1.353,0,0,0,1.082-1.623Z" transform="translate(14.071 9.515)"/><path class="a" d="M3.353,35.349H19.585A1.353,1.353,0,0,0,20.938,34V12.353A1.353,1.353,0,0,0,19.585,11H3.353A1.353,1.353,0,0,0,2,12.353V34A1.353,1.353,0,0,0,3.353,35.349ZM4.705,13.705H18.233V32.643H4.705Z" transform="translate(0 3.527)"/><path class="a" d="M12.058,15H9.353a1.353,1.353,0,0,0,0,2.705h2.705a1.353,1.353,0,0,0,0-2.705Z" transform="translate(2.116 4.938)"/><path class="a" d="M12.764,19H7.353a1.353,1.353,0,0,0,0,2.705h5.411a1.353,1.353,0,0,0,0-2.705Z" transform="translate(1.411 6.349)"/><path class="a" d="M12.764,23H7.353a1.353,1.353,0,0,0,0,2.705h5.411a1.353,1.353,0,0,0,0-2.705Z" transform="translate(1.411 7.76)"/><path class="a" d="M45.674,30.709a1.357,1.357,0,0,0-2.354,1.353l5.965,10.321L27.642,50.5h-.2l-3.517,2.029-2.34,1.353a2.7,2.7,0,0,1-3.693-.987l-2.705-4.68A2.705,2.705,0,0,1,16.2,44.642l4.68-2.705,3.382,5.857a1.357,1.357,0,1,0,2.354-1.353l-3.49-6.033,16.977-14,.555.96a1.357,1.357,0,0,0,2.354-1.353l-1.353-2.34a1.371,1.371,0,0,0-2.043-.365L20.675,38.92l-5.763,3.328a5.411,5.411,0,0,0-2.489,6.128l-1.353.771A4.055,4.055,0,0,0,13.1,56.722a4.139,4.139,0,0,0,2.029-.541l1.353-.771a5.249,5.249,0,0,0,2.367,1.407,5.127,5.127,0,0,0,1.42.189,5.33,5.33,0,0,0,2.705-.73l1.177-.676,2.705,4.694a4.055,4.055,0,1,0,7.021-4.058l-2.462-4.288,20.291-7.616a1.357,1.357,0,0,0,.7-1.934ZM13.723,53.827a1.352,1.352,0,1,1-1.353-2.34l1.177-.676,1.353,2.34Zm17.8,3.788a1.352,1.352,0,0,1-2.34,1.353l-2.705-4.694,2.245-1.285h.108Z" transform="translate(2.481 7.761)"/></g></svg>