<svg xmlns="http://www.w3.org/2000/svg" width="83.001" height="83.001" viewBox="0 0 83.001 83.001"><defs><style>.a{fill:#ec3237;}</style></defs><g transform="translate(0 -0.001)"><g transform="translate(63.223 60.643)"><path class="a" d="M392.767,374.555a1.62,1.62,0,1,0,.475,1.146A1.633,1.633,0,0,0,392.767,374.555Z" transform="translate(-390 -374.08)"/></g><g transform="translate(0 0.001)"><g transform="translate(0 0)"><path class="a" d="M76.517,0H6.484A6.492,6.492,0,0,0,0,6.485V57.4a6.492,6.492,0,0,0,6.484,6.484H31.936v8.138a9.415,9.415,0,0,0-8.484,9.357A1.621,1.621,0,0,0,25.073,83H57.928a1.621,1.621,0,0,0,1.621-1.621A9.413,9.413,0,0,0,50.741,72V63.886h7.565a1.621,1.621,0,1,0,0-3.242H6.484A3.246,3.246,0,0,1,3.242,57.4V6.485A3.246,3.246,0,0,1,6.484,3.243H76.517a3.246,3.246,0,0,1,3.242,3.242V57.4a3.246,3.246,0,0,1-3.242,3.242H70.464a1.621,1.621,0,0,0,0,3.242h6.052A6.492,6.492,0,0,0,83,57.4V6.485A6.492,6.492,0,0,0,76.517,0ZM35.178,63.886H47.5v8.092H35.178ZM50.146,75.221A6.172,6.172,0,0,1,56.09,79.76H26.911a6.171,6.171,0,0,1,5.944-4.539Z" transform="translate(0 -0.001)"/></g></g><g transform="translate(39.717 55.456)"><path class="a" d="M247.767,342.556a1.62,1.62,0,1,0,.475,1.146A1.633,1.633,0,0,0,247.767,342.556Z" transform="translate(-245 -342.081)"/></g><g transform="translate(19.787 19.008)"><path class="a" d="M125.969,127.958l7.943-7.943a1.621,1.621,0,1,0-2.293-2.293l-9.089,9.089a1.621,1.621,0,0,0,0,2.293l9.089,9.089a1.621,1.621,0,1,0,2.293-2.293Z" transform="translate(-122.055 -117.248)"/></g><g transform="translate(50.883 19.008)"><path class="a" d="M325.734,126.812l-9.089-9.089a1.621,1.621,0,1,0-2.293,2.293l7.943,7.943-7.943,7.943a1.621,1.621,0,0,0,2.293,2.293l9.089-9.089A1.621,1.621,0,0,0,325.734,126.812Z" transform="translate(-313.877 -117.248)"/></g><g transform="translate(37.452 19.646)"><path class="a" d="M237.922,121.242a1.621,1.621,0,0,0-1.986,1.146L231.084,140.5a1.621,1.621,0,1,0,3.132.839l4.853-18.113A1.621,1.621,0,0,0,237.922,121.242Z" transform="translate(-231.028 -121.186)"/></g><g transform="translate(6.484 6.499)"><path class="a" d="M108.411,40.084H82.635a1.621,1.621,0,0,0,0,3.242H106.79V83.854H43.242V43.326H68.126a1.621,1.621,0,0,0,0-3.242H41.621A1.621,1.621,0,0,0,40,41.705v43.77A1.621,1.621,0,0,0,41.621,87.1h66.79a1.621,1.621,0,0,0,1.621-1.621V41.705A1.621,1.621,0,0,0,108.411,40.084Z" transform="translate(-40 -40.084)"/></g><g transform="translate(40.204 6.498)"><path class="a" d="M250.767,40.556a1.622,1.622,0,1,0,.475,1.146A1.633,1.633,0,0,0,250.767,40.556Z" transform="translate(-248 -40.081)"/></g></g></svg>