<svg xmlns="http://www.w3.org/2000/svg" width="83.146" height="83.589" viewBox="0 0 83.146 83.589"><defs><style>.a{fill:#ec3237;}</style></defs><g transform="translate(-2 -1.68)"><rect class="a" width="2.772" height="2.772" transform="translate(21.401 33.996)"/><rect class="a" width="2.772" height="2.772" transform="translate(35.259 33.996)"/><path class="a" d="M83.957,49.253l-5.414-.773a19.4,19.4,0,0,0-.91-2.217l3.276-4.368a1.386,1.386,0,0,0-.129-1.811L74.9,34.2a1.371,1.371,0,0,0-.84-.392V20.472a11.086,11.086,0,0,0,4.157-8.649A10.971,10.971,0,0,0,71.88,1.813,1.386,1.386,0,0,0,69.9,3.066v7.76l-2.772.924-2.772-.924V3.066a1.386,1.386,0,0,0-1.977-1.247,10.971,10.971,0,0,0-6.337,10.005A11.086,11.086,0,0,0,60.2,20.472v9.366H56.045a1.386,1.386,0,0,0-1.372,1.189l-.9,6.276,2.744.392.726-5.086h5.912l.726,5.086a1.386,1.386,0,0,0,.984,1.134A16.544,16.544,0,0,1,68.194,40.2a1.386,1.386,0,0,0,1.5-.107l4.1-3.076,4.179,4.179-3.083,4.1a1.386,1.386,0,0,0-.107,1.5,16.545,16.545,0,0,1,1.368,3.326,1.386,1.386,0,0,0,1.134.984l5.086.726v5.912l-5.086.726a1.386,1.386,0,0,0-1.134.984,16.545,16.545,0,0,1-1.368,3.326,1.386,1.386,0,0,0,.107,1.5l3.076,4.1-4.179,4.179-4.1-3.087a1.386,1.386,0,0,0-1.5-.107,16.545,16.545,0,0,1-3.326,1.368,1.386,1.386,0,0,0-.984,1.134l-.722,5.089H57.431v-5.86a15.382,15.382,0,0,0-.624-4.325,12.624,12.624,0,1,0-8.861-9.786c-.033-.014-.065-.03-.1-.043l-11.2-4.482v-2.13a15.367,15.367,0,0,0,4.821-3.861h3.494a4.157,4.157,0,0,0,4.157-4.157V39.284a4.157,4.157,0,0,0,2.772-3.9V31.225a4.157,4.157,0,0,0-2.772-3.9V25.681a19.4,19.4,0,1,0-38.8,0v1.641a4.157,4.157,0,0,0-2.772,3.9v4.157A4.157,4.157,0,0,0,11.7,39.539h2.772c.089,0,.175-.014.262-.019a15.275,15.275,0,0,0,8.053,10.809v2.13l-11.2,4.482A15.173,15.173,0,0,0,2,71.095V83.884A1.386,1.386,0,0,0,3.386,85.27H56.045a1.386,1.386,0,0,0,1.386-1.386V79.726H64.36a1.386,1.386,0,0,0,1.372-1.189l.773-5.414a19.4,19.4,0,0,0,2.217-.91l4.368,3.276A1.386,1.386,0,0,0,74.9,75.36l5.88-5.88a1.386,1.386,0,0,0,.129-1.811L77.634,63.3a19.4,19.4,0,0,0,.91-2.217l5.414-.773a1.386,1.386,0,0,0,1.188-1.371V50.625a1.386,1.386,0,0,0-1.189-1.372Zm-15.243-11.9c-.065-.032-.139-.053-.2-.083V20.138H65.745V31.128l-.014-.1a1.386,1.386,0,0,0-1.372-1.189H62.974V19.778a1.386,1.386,0,0,0-.595-1.138,8.315,8.315,0,0,1-.791-13.022v6.205a1.386,1.386,0,0,0,.948,1.315l4.157,1.386a1.386,1.386,0,0,0,.876,0l4.157-1.386a1.386,1.386,0,0,0,.948-1.315V5.618a8.315,8.315,0,0,1-.791,13.026,1.386,1.386,0,0,0-.594,1.134v15.65ZM50.5,54.783a9.77,9.77,0,1,1,4.619,8.233A15.127,15.127,0,0,0,51.5,59.029a9.473,9.473,0,0,1-1-4.246ZM44.959,43.7H43.277A15.105,15.105,0,0,0,44.7,39.52c.087,0,.173.019.262.019h1.386v2.772A1.386,1.386,0,0,1,44.959,43.7ZM42.187,28.453a4.178,4.178,0,0,1-3.326-1.663l-2.494-3.326a1.386,1.386,0,0,0-.934-.543,1.4,1.4,0,0,0-1.041.292l-4.651,3.715a6.954,6.954,0,0,1-4.322,1.524H17.243V27.067a12.472,12.472,0,1,1,24.944,0Zm6.929,6.929a1.386,1.386,0,0,1-1.386,1.386H44.959V29.839H47.73a1.386,1.386,0,0,1,1.386,1.386Zm-19.4-26.33A16.647,16.647,0,0,1,46.345,25.681v1.386H44.959a15.243,15.243,0,1,0-30.487,0H13.086V25.681A16.647,16.647,0,0,1,29.715,9.052ZM11.7,36.768a1.386,1.386,0,0,1-1.386-1.386V31.225A1.386,1.386,0,0,1,11.7,29.839h2.772v6.929Zm5.543,0V31.225H25.42A9.734,9.734,0,0,0,31.478,29.1l3.535-2.828,1.631,2.183a6.964,6.964,0,0,0,5.543,2.772v5.543A12.4,12.4,0,0,1,40.078,43.7H29.715v2.772h7.821a12.459,12.459,0,0,1-20.293-9.7ZM29.715,52.011a15.2,15.2,0,0,0,4.157-.59V53.4a4.157,4.157,0,1,1-8.315,0V51.421a15.2,15.2,0,0,0,4.157.59ZM54.659,82.5H46.345V67.255H43.573V82.5H15.858V67.255H13.086V82.5H4.772v-11.4a12.414,12.414,0,0,1,7.841-11.581l10.481-4.192a6.885,6.885,0,0,0,13.245,0l10.481,4.192a12.414,12.414,0,0,1,7.841,11.581Z" transform="translate(0)"/><rect class="a" width="2.772" height="2.772" transform="translate(58.817 35.382)"/><rect class="a" width="2.772" height="2.772" transform="translate(58.817 71.412)"/><rect class="a" width="2.772" height="2.772" transform="translate(70.98 67.521) rotate(-45)"/><rect class="a" width="2.772" height="2.772" transform="translate(76.832 53.397)"/><rect class="a" width="2.772" height="2.772" transform="translate(70.981 42.045) rotate(-45)"/></g></svg>