<svg xmlns="http://www.w3.org/2000/svg" xmlns:xlink="http://www.w3.org/1999/xlink" width="169.343" height="162.315" viewBox="0 0 169.343 162.315"><defs><style>.a,.b,.c,.f{fill:#fff;}.a{clip-rule:evenodd;}.b{fill-rule:evenodd;}.d{clip-path:url(#a);}.e{clip-path:url(#c);}.f{opacity:0.53;mix-blend-mode:multiply;isolation:isolate;}.g{clip-path:url(#d);}.h{clip-path:url(#e);}.i{clip-path:url(#f);}</style><clipPath id="a"><path class="a" d="M505.851,769.682c-25.693,70.256-142.533,3.582-65.634-42.453,16.331-9.776-9.134,8.96-10.123,29.33-.629,12.956,13.956,18.4,25.311,19.205,58.677.207,5.707-106.714-40.761-36-10.483-73.5,118.558-44.876,91.207,29.913" transform="translate(-414.037 -697)"/></clipPath><clipPath id="c"><path class="a" d="M502.53,755.214c-8.9,31.127-64.071,66.921-75.961,18.836-4.356-14.067-3.62-29-.318-37.995s9.174-12.042,7.124-8.967-12.015,12.273-15.653,10.216-.94-15.361,6.314-23.728,19.074-11.8,28.392-11.964c19.8-.191,55.615,28.679,50.1,53.6" transform="translate(-416.111 -701.612)"/></clipPath><clipPath id="d"><path class="a" d="M502.15,751.5c-5.8,25.413-62.232,49.663-75.961,18.836-5.574-10.834-4.838-25.771-1.536-34.762s9.174-12.042,7.124-8.967-12.015,12.273-15.652,10.216-.943-15.359,6.314-23.728,19.074-11.8,28.392-11.964c18.883-.634,54.661,28.773,51.32,50.368" transform="translate(-414.512 -701.121)"/></clipPath><clipPath id="e"><path class="a" d="M500.3,750.868c-5.8,25.413-62.232,49.663-75.961,18.836-5.574-10.835-4.84-25.769-1.536-34.762s9.171-12.042,7.124-8.967-12.015,12.273-15.652,10.218-.94-15.361,6.314-23.73,19.074-11.8,28.392-11.964c18.883-.634,54.661,28.772,51.32,50.368" transform="translate(-412.664 -700.49)"/></clipPath><clipPath id="f"><path class="c" d="M402.361,752.933c.133,3.3-5.038,3.3-4.9,0C397.323,749.631,402.494,749.631,402.361,752.933Zm-.176,5.358v18.734h-4.551V758.291Zm23.165-1.716c-2.206,0-3.642.8-3.642,2.312,0,4.971,13.167,2.275,13.133,11.066-.031,9.209-14.779,8.653-19.75,3.326l1.961-3.957c3.177,3.084,11.573,5.979,12.675.911,0-5.114-13.167-2.208-13.167-10.926-.28-8.078,12.887-8.44,18.034-4.413l-1.89,4.062A15.677,15.677,0,0,0,425.351,756.575Zm42.989,4.378c.514,8.293-8.273,9.469-15.059,8.86v7.213h-4.691V752.513C455.515,752.519,469.04,750.825,468.339,760.953Zm-4.447.14c.4-5.343-6.875-4.48-10.612-4.482v9.069C457.082,765.684,464.286,766.54,463.893,761.093Zm31.99,10.75H483.907l-2.172,5.183h-4.867l10.75-24.512h4.869l10.61,24.512h-5.043Zm-1.681-4.026-4.271-10.3-4.342,10.3Zm31.643-11.277c-16.179,1.547-5.172,24.561,6.652,13.414l2.766,3.082c-7.522,8.338-22.818,3.235-22.445-8.3-.447-11.221,14.965-16.442,22.411-8.44l-2.732,3.433A9.2,9.2,0,0,0,525.844,756.539Zm40.534-4.026v4.1H553.107v6.059h11.906v4.1H553.107v6.163H566.8v4.1H548.416V752.513Z" transform="translate(-397.456 -750.457)"/></clipPath></defs><g transform="translate(-397.456 -697)"><g transform="translate(434.321 697)"><path class="b" d="M505.851,769.682c-25.693,70.256-142.533,3.582-65.634-42.453,16.331-9.776-9.134,8.96-10.123,29.33-.629,12.956,13.956,18.4,25.311,19.205,58.677.207,5.707-106.714-40.761-36-10.483-73.5,118.558-44.876,91.207,29.913" transform="translate(-414.037 -697)"/><g class="d"><rect class="c" width="169.886" height="173.672" transform="translate(-50.719 -30.734)"/></g></g><g transform="translate(434.321 697)"><path class="b" d="M505.851,769.682c-25.693,70.256-142.533,3.582-65.634-42.453,16.331-9.776-9.134,8.96-10.123,29.33-.629,12.956,13.956,18.4,25.311,19.205,58.677.207,5.707-106.714-40.761-36-10.483-73.5,118.558-44.876,91.207,29.913" transform="translate(-414.037 -697)"/><g class="d"><g transform="translate(4.612 10.256)"><path class="b" d="M502.53,755.214c-8.9,31.127-64.071,66.921-75.961,18.836-4.356-14.067-3.62-29-.318-37.995s9.174-12.042,7.124-8.967-12.015,12.273-15.653,10.216-.94-15.361,6.314-23.728,19.074-11.8,28.392-11.964c19.8-.191,55.615,28.679,50.1,53.6" transform="translate(-416.111 -701.612)"/><g class="e"><rect class="f" width="92.706" height="99.873" transform="translate(-2.025 -0.165)"/></g></g><g transform="translate(1.057 9.164)"><path class="b" d="M502.15,751.5c-5.8,25.413-62.232,49.663-75.961,18.836-5.574-10.834-4.838-25.771-1.536-34.762s9.174-12.042,7.124-8.967-12.015,12.273-15.652,10.216-.943-15.359,6.314-23.728,19.074-11.8,28.392-11.964c18.883-.634,54.661,28.773,51.32,50.368" transform="translate(-414.512 -701.121)"/><g class="g"><rect class="f" width="92.706" height="86.948" transform="translate(-2.025 -0.156)"/></g></g><g transform="translate(-3.052 7.759)"><path class="b" d="M500.3,750.868c-5.8,25.413-62.232,49.663-75.961,18.836-5.574-10.835-4.84-25.769-1.536-34.762s9.171-12.042,7.124-8.967-12.015,12.273-15.652,10.218-.94-15.361,6.314-23.73,19.074-11.8,28.392-11.964c18.883-.634,54.661,28.772,51.32,50.368" transform="translate(-412.664 -700.49)"/><g class="h"><rect class="f" width="92.706" height="86.948" transform="translate(-2.025 -0.155)"/></g></g></g></g><path class="c" d="M402.887,767.624v1.182h-2.7v.813h2.446V770.8H400.19v.82h2.771V772.8h-4.308v-5.18Z" transform="translate(1.464 86.399)"/><path class="c" d="M403.611,767.624l2.195,2.9v-2.9h1.4v5.18H405.9l-2.195-2.882V772.8H402.3v-5.18Z" transform="translate(5.921 86.399)"/><path class="c" d="M407.808,767.624v3.894h2.173V772.8h-3.71v-5.18Z" transform="translate(10.784 86.399)"/><rect class="c" width="1.537" height="5.18" transform="translate(424.35 854.022)"/><path class="c" d="M413.443,767.624l1.182,3.584,1.182-3.584h1.574l-2,5.18h-1.6l-1.98-5.18Z" transform="translate(17.552 86.399)"/><path class="c" d="M420.1,767.624v1.182h-2.7v.813h2.446V770.8H417.4v.82h2.771V772.8h-4.308v-5.18Z" transform="translate(22.524 86.399)"/><path class="c" d="M420.826,767.624l2.195,2.9v-2.9h1.4v5.18h-1.308l-2.195-2.882V772.8H419.51v-5.18Z" transform="translate(26.981 86.399)"/><rect class="c" width="1.537" height="5.18" transform="translate(455.33 854.022)"/><path class="c" d="M427.258,767.624l2.195,2.9v-2.9h1.4v5.18h-1.308l-2.195-2.882V772.8h-1.411v-5.18Z" transform="translate(34.85 86.399)"/><path class="c" d="M433.376,770.172H434.7v2.083c-6.643,3.586-6.277-7.746.076-3.842l-.872,1.056c-2.635-2.441-3.849,3.233-.525,1.965Z" transform="translate(39.642 86.348)"/><rect class="c" width="1.537" height="5.18" transform="translate(480.368 854.022)"/><path class="c" d="M438.52,767.624l2.195,2.9v-2.9h1.4v5.18h-1.308l-2.195-2.882V772.8H437.2v-5.18Z" transform="translate(48.627 86.399)"/><path class="c" d="M442.5,767.624l2.195,2.9v-2.9h1.4v5.18h-1.308l-2.195-2.882V772.8H441.18v-5.18Z" transform="translate(53.49 86.399)"/><path class="c" d="M450.668,770.205c.127,3.468-5.772,3.477-5.645,0C444.894,766.764,450.8,766.77,450.668,770.205Zm-4.071.007a1.251,1.251,0,1,0,2.5,0A1.251,1.251,0,1,0,446.6,770.212Z" transform="translate(58.189 86.403)"/><path class="c" d="M450.595,767.624l1.182,3.584,1.182-3.584h1.574l-2,5.18h-1.6l-1.98-5.18Z" transform="translate(63.001 86.399)"/><path class="c" d="M456.586,771.975H454.5l-.311.829H452.6l2.21-5.18h1.581l2.135,5.18h-1.641Zm-.407-1.123-.62-1.692-.636,1.692Z" transform="translate(67.466 86.399)"/><path class="c" d="M460.928,767.624v1.227h-1.508V772.8h-1.544V768.85h-1.5v-1.227Z" transform="translate(72.081 86.399)"/><rect class="c" width="1.537" height="5.18" transform="translate(536.543 854.022)"/><path class="c" d="M467.983,770.205c.125,3.468-5.772,3.477-5.645,0C462.209,766.764,468.112,766.77,467.983,770.205Zm-4.071.007a1.251,1.251,0,1,0,2.5,0A1.251,1.251,0,1,0,463.912,770.212Z" transform="translate(79.372 86.403)"/><path class="c" d="M467.823,767.624l2.195,2.9v-2.9h1.4v5.18h-1.308l-2.195-2.882V772.8h-1.412v-5.18Z" transform="translate(84.476 86.399)"/><path class="c" d="M472.677,768.79c-1.734.883,2.47.511,2.277,2.459-.069,2.17-3.4,1.861-4.627.807l.578-1.169c.62.471,2.117,1.287,2.459.445,0-.783-2.7-.289-2.7-2.114-.069-1.926,3.1-1.939,4.309-1.034l-.569,1.183A4.323,4.323,0,0,0,472.677,768.79Z" transform="translate(89.148 86.371)"/><g transform="translate(397.456 815.855)"><path class="c" d="M402.361,752.933c.133,3.3-5.038,3.3-4.9,0C397.323,749.631,402.494,749.631,402.361,752.933Zm-.176,5.358v18.734h-4.551V758.291Zm23.165-1.716c-2.206,0-3.642.8-3.642,2.312,0,4.971,13.167,2.275,13.133,11.066-.031,9.209-14.779,8.653-19.75,3.326l1.961-3.957c3.177,3.084,11.573,5.979,12.675.911,0-5.114-13.167-2.208-13.167-10.926-.28-8.078,12.887-8.44,18.034-4.413l-1.89,4.062A15.677,15.677,0,0,0,425.351,756.575Zm42.989,4.378c.514,8.293-8.273,9.469-15.059,8.86v7.213h-4.691V752.513C455.515,752.519,469.04,750.825,468.339,760.953Zm-4.447.14c.4-5.343-6.875-4.48-10.612-4.482v9.069C457.082,765.684,464.286,766.54,463.893,761.093Zm31.99,10.75H483.907l-2.172,5.183h-4.867l10.75-24.512h4.869l10.61,24.512h-5.043Zm-1.681-4.026-4.271-10.3-4.342,10.3Zm31.643-11.277c-16.179,1.547-5.172,24.561,6.652,13.414l2.766,3.082c-7.522,8.338-22.818,3.235-22.445-8.3-.447-11.221,14.965-16.442,22.411-8.44l-2.732,3.433A9.2,9.2,0,0,0,525.844,756.539Zm40.534-4.026v4.1H553.107v6.059h11.906v4.1H553.107v6.163H566.8v4.1H548.416V752.513Z" transform="translate(-397.456 -750.457)"/><g class="i"><rect class="c" width="1158.313" height="819.009" transform="translate(-247.903 -397.372)"/></g></g></g></svg>