<svg xmlns="http://www.w3.org/2000/svg" width="292" height="346" viewBox="0 0 292 346"><defs><style>.a{fill:#ec3237;}</style></defs><g transform="translate(4340.129 -4462)"><g transform="translate(-4340.129 4462)"><rect class="a" width="6" height="6" transform="translate(286)"/><rect class="a" width="6" height="6" transform="translate(264)"/><rect class="a" width="6" height="6" transform="translate(242)"/><rect class="a" width="6" height="6" transform="translate(220)"/><rect class="a" width="6" height="6" transform="translate(198)"/><rect class="a" width="6" height="6" transform="translate(176)"/><rect class="a" width="6" height="6" transform="translate(154)"/><rect class="a" width="6" height="6" transform="translate(132)"/><rect class="a" width="6" height="6" transform="translate(111)"/><rect class="a" width="6" height="6" transform="translate(88)"/><rect class="a" width="6" height="6" transform="translate(66)"/><rect class="a" width="6" height="6" transform="translate(44)"/><rect class="a" width="6" height="6" transform="translate(22)"/><rect class="a" width="6" height="6"/></g><g transform="translate(-4340.129 4551.255)"><rect class="a" width="6" height="6" transform="translate(286 -0.255)"/><rect class="a" width="6" height="6" transform="translate(264 -0.255)"/><rect class="a" width="6" height="6" transform="translate(242 -0.255)"/><rect class="a" width="6" height="6" transform="translate(220 -0.255)"/><rect class="a" width="6" height="6" transform="translate(198 -0.255)"/><rect class="a" width="6" height="6" transform="translate(176 -0.255)"/><rect class="a" width="6" height="6" transform="translate(154 -0.255)"/><rect class="a" width="6" height="6" transform="translate(132 -0.255)"/><rect class="a" width="6" height="6" transform="translate(111 -0.255)"/><rect class="a" width="6" height="6" transform="translate(88 -0.255)"/><rect class="a" width="6" height="6" transform="translate(66 -0.255)"/><rect class="a" width="6" height="6" transform="translate(44 -0.255)"/><rect class="a" width="6" height="6" transform="translate(22 -0.255)"/><rect class="a" width="6" height="6" transform="translate(0 -0.255)"/></g><g transform="translate(-4340.129 4640.51)"><rect class="a" width="6" height="5" transform="translate(286 0.49)"/><rect class="a" width="6" height="5" transform="translate(264 0.49)"/><rect class="a" width="6" height="5" transform="translate(242 0.49)"/><rect class="a" width="6" height="5" transform="translate(220 0.49)"/><rect class="a" width="6" height="5" transform="translate(198 0.49)"/><rect class="a" width="6" height="5" transform="translate(176 0.49)"/><rect class="a" width="6" height="5" transform="translate(154 0.49)"/><rect class="a" width="6" height="5" transform="translate(132 0.49)"/><rect class="a" width="6" height="5" transform="translate(111 0.49)"/><rect class="a" width="6" height="5" transform="translate(88 0.49)"/><rect class="a" width="6" height="5" transform="translate(66 0.49)"/><rect class="a" width="6" height="5" transform="translate(44 0.49)"/><rect class="a" width="6" height="5" transform="translate(22 0.49)"/><rect class="a" width="6" height="5" transform="translate(0 0.49)"/></g><g transform="translate(-4340.129 4730.866)"><rect class="a" width="6" height="5" transform="translate(286 0.134)"/><rect class="a" width="6" height="5" transform="translate(264 0.134)"/><rect class="a" width="6" height="5" transform="translate(242 0.134)"/><rect class="a" width="6" height="5" transform="translate(220 0.134)"/><rect class="a" width="6" height="5" transform="translate(198 0.134)"/><rect class="a" width="6" height="5" transform="translate(176 0.134)"/><rect class="a" width="6" height="5" transform="translate(154 0.134)"/><rect class="a" width="6" height="5" transform="translate(132 0.134)"/><rect class="a" width="6" height="5" transform="translate(111 0.134)"/><rect class="a" width="6" height="5" transform="translate(88 0.134)"/><rect class="a" width="6" height="5" transform="translate(66 0.134)"/><rect class="a" width="6" height="5" transform="translate(44 0.134)"/><rect class="a" width="6" height="5" transform="translate(22 0.134)"/><rect class="a" width="6" height="5" transform="translate(0 0.134)"/></g><g transform="translate(-4340.129 4479.63)"><rect class="a" width="6" height="5" transform="translate(286 0.37)"/><rect class="a" width="6" height="5" transform="translate(264 0.37)"/><rect class="a" width="6" height="5" transform="translate(242 0.37)"/><rect class="a" width="6" height="5" transform="translate(220 0.37)"/><rect class="a" width="6" height="5" transform="translate(198 0.37)"/><rect class="a" width="6" height="5" transform="translate(176 0.37)"/><rect class="a" width="6" height="5" transform="translate(154 0.37)"/><rect class="a" width="6" height="5" transform="translate(132 0.37)"/><rect class="a" width="6" height="5" transform="translate(111 0.37)"/><rect class="a" width="6" height="5" transform="translate(88 0.37)"/><rect class="a" width="6" height="5" transform="translate(66 0.37)"/><rect class="a" width="6" height="5" transform="translate(44 0.37)"/><rect class="a" width="6" height="5" transform="translate(22 0.37)"/><rect class="a" width="6" height="5" transform="translate(0 0.37)"/></g><g transform="translate(-4340.129 4569.987)"><rect class="a" width="6" height="5" transform="translate(286 0.013)"/><rect class="a" width="6" height="5" transform="translate(264 0.013)"/><rect class="a" width="6" height="5" transform="translate(242 0.013)"/><rect class="a" width="6" height="5" transform="translate(220 0.013)"/><rect class="a" width="6" height="5" transform="translate(198 0.013)"/><rect class="a" width="6" height="5" transform="translate(176 0.013)"/><rect class="a" width="6" height="5" transform="translate(154 0.013)"/><rect class="a" width="6" height="5" transform="translate(132 0.013)"/><rect class="a" width="6" height="5" transform="translate(111 0.013)"/><rect class="a" width="6" height="5" transform="translate(88 0.013)"/><rect class="a" width="6" height="5" transform="translate(66 0.013)"/><rect class="a" width="6" height="5" transform="translate(44 0.013)"/><rect class="a" width="6" height="5" transform="translate(22 0.013)"/><rect class="a" width="6" height="5" transform="translate(0 0.013)"/></g><g transform="translate(-4340.129 4659.242)"><rect class="a" width="6" height="6" transform="translate(286 -0.242)"/><rect class="a" width="6" height="6" transform="translate(264 -0.242)"/><rect class="a" width="6" height="6" transform="translate(242 -0.242)"/><rect class="a" width="6" height="6" transform="translate(220 -0.242)"/><rect class="a" width="6" height="6" transform="translate(198 -0.242)"/><rect class="a" width="6" height="6" transform="translate(176 -0.242)"/><rect class="a" width="6" height="6" transform="translate(154 -0.242)"/><rect class="a" width="6" height="6" transform="translate(132 -0.242)"/><rect class="a" width="6" height="6" transform="translate(111 -0.242)"/><rect class="a" width="6" height="6" transform="translate(88 -0.242)"/><rect class="a" width="6" height="6" transform="translate(66 -0.242)"/><rect class="a" width="6" height="6" transform="translate(44 -0.242)"/><rect class="a" width="6" height="6" transform="translate(22 -0.242)"/><rect class="a" width="6" height="6" transform="translate(0 -0.242)"/></g><g transform="translate(-4340.129 4748.497)"><rect class="a" width="6" height="6" transform="translate(286 -0.497)"/><rect class="a" width="6" height="6" transform="translate(264 -0.497)"/><rect class="a" width="6" height="6" transform="translate(242 -0.497)"/><rect class="a" width="6" height="6" transform="translate(220 -0.497)"/><rect class="a" width="6" height="6" transform="translate(198 -0.497)"/><rect class="a" width="6" height="6" transform="translate(176 -0.497)"/><rect class="a" width="6" height="6" transform="translate(154 -0.497)"/><rect class="a" width="6" height="6" transform="translate(132 -0.497)"/><rect class="a" width="6" height="6" transform="translate(111 -0.497)"/><rect class="a" width="6" height="6" transform="translate(88 -0.497)"/><rect class="a" width="6" height="6" transform="translate(66 -0.497)"/><rect class="a" width="6" height="6" transform="translate(44 -0.497)"/><rect class="a" width="6" height="6" transform="translate(22 -0.497)"/><rect class="a" width="6" height="6" transform="translate(0 -0.497)"/></g><g transform="translate(-4340.129 4498.363)"><rect class="a" width="6" height="6" transform="translate(286 -0.363)"/><rect class="a" width="6" height="6" transform="translate(264 -0.363)"/><rect class="a" width="6" height="6" transform="translate(242 -0.363)"/><rect class="a" width="6" height="6" transform="translate(220 -0.363)"/><rect class="a" width="6" height="6" transform="translate(198 -0.363)"/><rect class="a" width="6" height="6" transform="translate(176 -0.363)"/><rect class="a" width="6" height="6" transform="translate(154 -0.363)"/><rect class="a" width="6" height="6" transform="translate(132 -0.363)"/><rect class="a" width="6" height="6" transform="translate(111 -0.363)"/><rect class="a" width="6" height="6" transform="translate(88 -0.363)"/><rect class="a" width="6" height="6" transform="translate(66 -0.363)"/><rect class="a" width="6" height="6" transform="translate(44 -0.363)"/><rect class="a" width="6" height="6" transform="translate(22 -0.363)"/><rect class="a" width="6" height="6" transform="translate(0 -0.363)"/></g><g transform="translate(-4340.129 4587.618)"><rect class="a" width="6" height="5" transform="translate(286 0.382)"/><rect class="a" width="6" height="5" transform="translate(264 0.382)"/><rect class="a" width="6" height="5" transform="translate(242 0.382)"/><rect class="a" width="6" height="5" transform="translate(220 0.382)"/><rect class="a" width="6" height="5" transform="translate(198 0.382)"/><rect class="a" width="6" height="5" transform="translate(176 0.382)"/><rect class="a" width="6" height="5" transform="translate(154 0.382)"/><rect class="a" width="6" height="5" transform="translate(132 0.382)"/><rect class="a" width="6" height="5" transform="translate(111 0.382)"/><rect class="a" width="6" height="5" transform="translate(88 0.382)"/><rect class="a" width="6" height="5" transform="translate(66 0.382)"/><rect class="a" width="6" height="5" transform="translate(44 0.382)"/><rect class="a" width="6" height="5" transform="translate(22 0.382)"/><rect class="a" width="6" height="5" transform="translate(0 0.382)"/></g><g transform="translate(-4340.129 4676.873)"><rect class="a" width="6" height="5" transform="translate(286 0.127)"/><rect class="a" width="6" height="5" transform="translate(264 0.127)"/><rect class="a" width="6" height="5" transform="translate(242 0.127)"/><rect class="a" width="6" height="5" transform="translate(220 0.127)"/><rect class="a" width="6" height="5" transform="translate(198 0.127)"/><rect class="a" width="6" height="5" transform="translate(176 0.127)"/><rect class="a" width="6" height="5" transform="translate(154 0.127)"/><rect class="a" width="6" height="5" transform="translate(132 0.127)"/><rect class="a" width="6" height="5" transform="translate(111 0.127)"/><rect class="a" width="6" height="5" transform="translate(88 0.127)"/><rect class="a" width="6" height="5" transform="translate(66 0.127)"/><rect class="a" width="6" height="5" transform="translate(44 0.127)"/><rect class="a" width="6" height="5" transform="translate(22 0.127)"/><rect class="a" width="6" height="5" transform="translate(0 0.127)"/></g><g transform="translate(-4340.129 4766.127)"><rect class="a" width="6" height="6" transform="translate(286 -0.127)"/><rect class="a" width="6" height="6" transform="translate(264 -0.127)"/><rect class="a" width="6" height="6" transform="translate(242 -0.127)"/><rect class="a" width="6" height="6" transform="translate(220 -0.127)"/><rect class="a" width="6" height="6" transform="translate(198 -0.127)"/><rect class="a" width="6" height="6" transform="translate(176 -0.127)"/><rect class="a" width="6" height="6" transform="translate(154 -0.127)"/><rect class="a" width="6" height="6" transform="translate(132 -0.127)"/><rect class="a" width="6" height="6" transform="translate(111 -0.127)"/><rect class="a" width="6" height="6" transform="translate(88 -0.127)"/><rect class="a" width="6" height="6" transform="translate(66 -0.127)"/><rect class="a" width="6" height="6" transform="translate(44 -0.127)"/><rect class="a" width="6" height="6" transform="translate(22 -0.127)"/><rect class="a" width="6" height="6" transform="translate(0 -0.127)"/></g><g transform="translate(-4340.129 4515.994)"><rect class="a" width="6" height="6" transform="translate(286 0.006)"/><rect class="a" width="6" height="6" transform="translate(264 0.006)"/><rect class="a" width="6" height="6" transform="translate(242 0.006)"/><rect class="a" width="6" height="6" transform="translate(220 0.006)"/><rect class="a" width="6" height="6" transform="translate(198 0.006)"/><rect class="a" width="6" height="6" transform="translate(176 0.006)"/><rect class="a" width="6" height="6" transform="translate(154 0.006)"/><rect class="a" width="6" height="6" transform="translate(132 0.006)"/><rect class="a" width="6" height="6" transform="translate(111 0.006)"/><rect class="a" width="6" height="6" transform="translate(88 0.006)"/><rect class="a" width="6" height="6" transform="translate(66 0.006)"/><rect class="a" width="6" height="6" transform="translate(44 0.006)"/><rect class="a" width="6" height="6" transform="translate(22 0.006)"/><rect class="a" width="6" height="6" transform="translate(0 0.006)"/></g><g transform="translate(-4340.129 4605.249)"><rect class="a" width="6" height="6" transform="translate(286 -0.249)"/><rect class="a" width="6" height="6" transform="translate(264 -0.249)"/><rect class="a" width="6" height="6" transform="translate(242 -0.249)"/><rect class="a" width="6" height="6" transform="translate(220 -0.249)"/><rect class="a" width="6" height="6" transform="translate(198 -0.249)"/><rect class="a" width="6" height="6" transform="translate(176 -0.249)"/><rect class="a" width="6" height="6" transform="translate(154 -0.249)"/><rect class="a" width="6" height="6" transform="translate(132 -0.249)"/><rect class="a" width="6" height="6" transform="translate(111 -0.249)"/><rect class="a" width="6" height="6" transform="translate(88 -0.249)"/><rect class="a" width="6" height="6" transform="translate(66 -0.249)"/><rect class="a" width="6" height="6" transform="translate(44 -0.249)"/><rect class="a" width="6" height="6" transform="translate(22 -0.249)"/><rect class="a" width="6" height="6" transform="translate(0 -0.249)"/></g><g transform="translate(-4340.129 4694.503)"><rect class="a" width="6" height="5" transform="translate(286 0.497)"/><rect class="a" width="6" height="5" transform="translate(264 0.497)"/><rect class="a" width="6" height="5" transform="translate(242 0.497)"/><rect class="a" width="6" height="5" transform="translate(220 0.497)"/><rect class="a" width="6" height="5" transform="translate(198 0.497)"/><rect class="a" width="6" height="5" transform="translate(176 0.497)"/><rect class="a" width="6" height="5" transform="translate(154 0.497)"/><rect class="a" width="6" height="5" transform="translate(132 0.497)"/><rect class="a" width="6" height="5" transform="translate(111 0.497)"/><rect class="a" width="6" height="5" transform="translate(88 0.497)"/><rect class="a" width="6" height="5" transform="translate(66 0.497)"/><rect class="a" width="6" height="5" transform="translate(44 0.497)"/><rect class="a" width="6" height="5" transform="translate(22 0.497)"/><rect class="a" width="6" height="5" transform="translate(0 0.497)"/></g><g transform="translate(-4340.129 4784.86)"><rect class="a" width="6" height="5" transform="translate(286 0.14)"/><rect class="a" width="6" height="5" transform="translate(264 0.14)"/><rect class="a" width="6" height="5" transform="translate(242 0.14)"/><rect class="a" width="6" height="5" transform="translate(220 0.14)"/><rect class="a" width="6" height="5" transform="translate(198 0.14)"/><rect class="a" width="6" height="5" transform="translate(176 0.14)"/><rect class="a" width="6" height="5" transform="translate(154 0.14)"/><rect class="a" width="6" height="5" transform="translate(132 0.14)"/><rect class="a" width="6" height="5" transform="translate(111 0.14)"/><rect class="a" width="6" height="5" transform="translate(88 0.14)"/><rect class="a" width="6" height="5" transform="translate(66 0.14)"/><rect class="a" width="6" height="5" transform="translate(44 0.14)"/><rect class="a" width="6" height="5" transform="translate(22 0.14)"/><rect class="a" width="6" height="5" transform="translate(0 0.14)"/></g><g transform="translate(-4340.129 4533.624)"><rect class="a" width="6" height="5" transform="translate(286 0.376)"/><rect class="a" width="6" height="5" transform="translate(264 0.376)"/><rect class="a" width="6" height="5" transform="translate(242 0.376)"/><rect class="a" width="6" height="5" transform="translate(220 0.376)"/><rect class="a" width="6" height="5" transform="translate(198 0.376)"/><rect class="a" width="6" height="5" transform="translate(176 0.376)"/><rect class="a" width="6" height="5" transform="translate(154 0.376)"/><rect class="a" width="6" height="5" transform="translate(132 0.376)"/><rect class="a" width="6" height="5" transform="translate(111 0.376)"/><rect class="a" width="6" height="5" transform="translate(88 0.376)"/><rect class="a" width="6" height="5" transform="translate(66 0.376)"/><rect class="a" width="6" height="5" transform="translate(44 0.376)"/><rect class="a" width="6" height="5" transform="translate(22 0.376)"/><rect class="a" width="6" height="5" transform="translate(0 0.376)"/></g><g transform="translate(-4340.129 4623.981)"><rect class="a" width="6" height="5" transform="translate(286 0.019)"/><rect class="a" width="6" height="5" transform="translate(264 0.019)"/><rect class="a" width="6" height="5" transform="translate(242 0.019)"/><rect class="a" width="6" height="5" transform="translate(220 0.019)"/><rect class="a" width="6" height="5" transform="translate(198 0.019)"/><rect class="a" width="6" height="5" transform="translate(176 0.019)"/><rect class="a" width="6" height="5" transform="translate(154 0.019)"/><rect class="a" width="6" height="5" transform="translate(132 0.019)"/><rect class="a" width="6" height="5" transform="translate(111 0.019)"/><rect class="a" width="6" height="5" transform="translate(88 0.019)"/><rect class="a" width="6" height="5" transform="translate(66 0.019)"/><rect class="a" width="6" height="5" transform="translate(44 0.019)"/><rect class="a" width="6" height="5" transform="translate(22 0.019)"/><rect class="a" width="6" height="5" transform="translate(0 0.019)"/></g><g transform="translate(-4340.129 4713.236)"><rect class="a" width="6" height="6" transform="translate(286 -0.236)"/><rect class="a" width="6" height="6" transform="translate(264 -0.236)"/><rect class="a" width="6" height="6" transform="translate(242 -0.236)"/><rect class="a" width="6" height="6" transform="translate(220 -0.236)"/><rect class="a" width="6" height="6" transform="translate(198 -0.236)"/><rect class="a" width="6" height="6" transform="translate(176 -0.236)"/><rect class="a" width="6" height="6" transform="translate(154 -0.236)"/><rect class="a" width="6" height="6" transform="translate(132 -0.236)"/><rect class="a" width="6" height="6" transform="translate(111 -0.236)"/><rect class="a" width="6" height="6" transform="translate(88 -0.236)"/><rect class="a" width="6" height="6" transform="translate(66 -0.236)"/><rect class="a" width="6" height="6" transform="translate(44 -0.236)"/><rect class="a" width="6" height="6" transform="translate(22 -0.236)"/><rect class="a" width="6" height="6" transform="translate(0 -0.236)"/></g><g transform="translate(-4340.129 4802.49)"><rect class="a" width="6" height="6" transform="translate(286 -0.49)"/><rect class="a" width="6" height="6" transform="translate(264 -0.49)"/><rect class="a" width="6" height="6" transform="translate(242 -0.49)"/><rect class="a" width="6" height="6" transform="translate(220 -0.49)"/><rect class="a" width="6" height="6" transform="translate(198 -0.49)"/><rect class="a" width="6" height="6" transform="translate(176 -0.49)"/><rect class="a" width="6" height="6" transform="translate(154 -0.49)"/><rect class="a" width="6" height="6" transform="translate(132 -0.49)"/><rect class="a" width="6" height="6" transform="translate(111 -0.49)"/><rect class="a" width="6" height="6" transform="translate(88 -0.49)"/><rect class="a" width="6" height="6" transform="translate(66 -0.49)"/><rect class="a" width="6" height="6" transform="translate(44 -0.49)"/><rect class="a" width="6" height="6" transform="translate(22 -0.49)"/><rect class="a" width="6" height="6" transform="translate(0 -0.49)"/></g></g></svg>