<svg xmlns="http://www.w3.org/2000/svg" xmlns:xlink="http://www.w3.org/1999/xlink" width="2612" height="1306" viewBox="0 0 2612 1306"><defs><style>.a{fill:none;}.b{opacity:0.26;}.c{clip-path:url(#a);}.d{fill:#c4c4c4;}.e{fill:#231f20;}</style><clipPath id="a"><rect class="a" width="2612" height="1306"/></clipPath></defs><g class="b"><g class="c"><g transform="translate(645.349 -236.909)"><g transform="translate(9.421 0)"><g transform="translate(1816.774 1765.002)"><path class="d" d="M802.557-92.1,548.382,48.372l68.542,61.358L802.888-26.987l.014,2.635L617.49,111.956a1.061,1.061,0,0,1-1.343-.063l-70.3-62.936a1.068,1.068,0,0,1-.345-.912,1.053,1.053,0,0,1,.54-.812l256.5-141.759Z" transform="translate(-545.494 94.526)"/></g><g transform="translate(1816.771 1571.731)"><path class="d" d="M801.579-77.162l-251.1,329.094,252.067-139.31.014,2.422-255.487,141.2a1.054,1.054,0,0,1-1.319-.231,1.066,1.066,0,0,1-.041-1.342L801.561-80.649Z" transform="translate(-545.494 80.649)"/></g><g transform="translate(1031.419 2.214)"><path class="d" d="M377.454,306.672,719.378,460.84l33.511-156.086,2.177-.009L721.179,462.577a1.057,1.057,0,0,1-1.474.744L372.329,306.7Z" transform="translate(-372.329 -304.745)"/></g><g transform="translate(1840.871 0)"><path class="d" d="M775.119,396.1l-224.311-71.65,6.887-.035L775.107,393.86Z" transform="translate(-550.808 -324.413)"/></g><g transform="translate(1887.073 1832.546)"><path class="d" d="M748.1-93.262,565.163,41.227l183.656,6.1.014,2.132-186.809-6.2a1.064,1.064,0,0,1-.594-1.923L748.09-95.893Z" transform="translate(-560.995 95.893)"/></g><g transform="translate(1818.159 1066.872)"><path class="d" d="M797.912,76.161,550.34,90.756,750.365,212.048l48.051-37.412.014,2.685-47.335,36.858a1.067,1.067,0,0,1-1.206.068L546.313,90.806a1.065,1.065,0,0,1,.49-1.973l251.1-14.8Z" transform="translate(-545.8 -74.03)"/></g><g transform="translate(230.596 7.978)"><path class="d" d="M198.216,322.373,239,391.926l8.218-69.8,2.145-.014-8.622,73.213a1.06,1.06,0,0,1-.839.916,1.073,1.073,0,0,1-1.138-.5l-43.008-73.349Z" transform="translate(-195.753 -322.11)"/></g><g transform="translate(1793.188 0)"><path class="d" d="M775.119,396.1,550.808,324.448l6.885-.035L775.107,393.86Z" transform="translate(-503.125 -324.413)"/><path class="d" d="M812.348,391.966,577.175,450.385a1.084,1.084,0,0,1-1.288-.775L540.294,308.984l2.2-.009,35.2,139.084L812.334,389.77Z" transform="translate(-540.294 -308.707)"/></g><g transform="translate(1837.696 494.528)"><path class="d" d="M780.139,281.358,651.655,207.619l-97.037,25.928,225.717,86.429.014,2.286-229.558-87.9a1.066,1.066,0,0,1,.1-2.023l100.633-26.885a1.124,1.124,0,0,1,.272-.036,1.061,1.061,0,0,1,.535.141L780.126,278.9Z" transform="translate(-550.108 -205.415)"/></g><g transform="translate(1378.167 1.996)"><path class="d" d="M484.774,304.962,451.29,460.926l129.786-46.047L525.011,304.758l2.381-.014,56.129,110.248a1.064,1.064,0,0,1,.041.88,1.081,1.081,0,0,1-.63.608L450.206,463.57a1.063,1.063,0,0,1-1.4-1.224L482.6,304.971Z" transform="translate(-448.785 -304.745)"/></g><g transform="translate(1454.393 1.347)"><path class="d" d="M467.973,315.776l55.276,108.579,68.773-109.214,2.522-.014L524.056,427.076a.993.993,0,0,1-.952.494,1.056,1.056,0,0,1-.9-.581l-56.614-111.2Z" transform="translate(-465.592 -315.127)"/></g><g transform="translate(1510.891 0.476)"><path class="d" d="M547.982,316.013,550.5,316,481.948,424.878,716.255,315.156l5.075-.027L479.568,428.343a1.065,1.065,0,0,1-1.356-1.528Z" transform="translate(-478.049 -315.128)"/></g><g transform="translate(1510.891 0.268)"><path class="d" d="M478.66,420.47,716.25,309.21l5.08-.027L483.15,420.719l312.422,27.438L760.347,308.984l2.2-.009L798,449.088a1.079,1.079,0,0,1-.222.952,1.1,1.1,0,0,1-.9.367L479.023,422.493a1.064,1.064,0,0,1-.363-2.023Z" transform="translate(-478.049 -308.974)"/></g><g transform="translate(273.46 7.438)"><path class="d" d="M215.947,322.65l-8.359,70.964,110.534-71.485,3.95-.018L206.845,396.629a1.055,1.055,0,0,1-1.138.014,1.066,1.066,0,0,1-.494-1.03l8.594-72.95Z" transform="translate(-205.204 -322.11)"/></g><g transform="translate(978.235 725.124)"><path class="d" d="M372.588,161.315a1.093,1.093,0,0,0-.531.141,1.071,1.071,0,0,0-.508.707l-10.926,52.8a1.068,1.068,0,0,0,.181.839,1.054,1.054,0,0,0,.739.431l270.285,31.321a1.029,1.029,0,0,0,1.166-.83,1.068,1.068,0,0,0-.717-1.238L372.919,161.365A1.028,1.028,0,0,0,372.588,161.315Zm-9.642,52.94,10.449-50.5,248.053,80.456Z" transform="translate(-360.602 -161.315)"/></g><g transform="translate(131.001 8.241)"><path class="d" d="M175.929,304.564l13.941,152.363,126.008-80.392L273.392,304.07l2.458-.014,42.382,72.288a1.063,1.063,0,0,1-.345,1.433L189.54,459.662a1.093,1.093,0,0,1-1.043.059,1.074,1.074,0,0,1-.59-.862L173.793,304.577Z" transform="translate(-173.793 -304.056)"/></g><g transform="translate(145.11 80.003)"><path class="d" d="M306.314,270.109a1.06,1.06,0,0,0-.567.168L177.4,352.157a1.063,1.063,0,0,0-.041,1.769L396.484,507.881a1.063,1.063,0,0,0,1.605-1.252L307.312,270.79a1.085,1.085,0,0,0-.662-.63A1.2,1.2,0,0,0,306.314,270.109ZM179.884,353.1l125.909-80.329L394.847,504.13Z" transform="translate(-176.904 -270.109)"/></g><g transform="translate(273.46 73.798)"><path class="d" d="M595.329,270.109h-.013l-389.064,6.2a1.059,1.059,0,0,0-.975,1.442L296.054,513.6a1.061,1.061,0,0,0,1.664.445L596,272a1.063,1.063,0,0,0-.676-1.886Zm-387.518,8.309,384.461-6.132L297.514,511.468Z" transform="translate(-205.204 -270.109)"/></g><g transform="translate(273.46 6.662)"><path class="d" d="M318.123,322.9l3.95-.018L209.966,395.391l381.345-6.082L469.37,322.133l4.372-.023,122.1,67.267a1.063,1.063,0,0,1-.494,2l-389.064,6.2h-.014a1.062,1.062,0,0,1-.585-1.955Z" transform="translate(-205.204 -322.11)"/></g><g transform="translate(537.626 6.254)"><path class="d" d="M267.823,323.886,386.4,389.208l-40.373-65.721,2.49-.009,41.806,68.047a1.074,1.074,0,0,1-.136,1.293,1.062,1.062,0,0,1-1.283.2L263.451,323.909Z" transform="translate(-263.451 -323.478)"/></g><g transform="translate(620.2 4.798)"><path class="d" d="M284.148,324.933l41.38,67.358L561.15,323.518l7.733-.041L325.346,394.559a1.041,1.041,0,0,1-1.206-.463l-42.482-69.154Z" transform="translate(-281.658 -323.477)"/></g><g transform="translate(1248.521 628.672)"><path class="d" d="M871.018,119.936a.967.967,0,0,0-.39.077L420.868,300.585a1.063,1.063,0,0,0-.281,1.81L648.28,490.065a1.025,1.025,0,0,0,.862.227,1.045,1.045,0,0,0,.73-.5L871.934,121.55a1.073,1.073,0,0,0-.1-1.243A1.056,1.056,0,0,0,871.018,119.936ZM423.326,301.9,868.469,123.169,648.684,487.639Z" transform="translate(-420.198 -119.936)"/></g><g transform="translate(1476.219 628.672)"><path class="d" d="M693.525,101.538a1.059,1.059,0,0,0-.907.512L470.556,470.3a1.075,1.075,0,0,0-.1.866,1.051,1.051,0,0,0,.581.653l186.577,83.44a1.046,1.046,0,0,0,.975-.054,1.062,1.062,0,0,0,.522-.83l35.484-451.687a1.068,1.068,0,0,0-.735-1.1A1.046,1.046,0,0,0,693.525,101.538ZM473,470.366,692.114,107.007,657.1,552.7Z" transform="translate(-470.404 -101.538)"/></g><g transform="translate(1662.796 628.672)"><path class="d" d="M548.087,101.248l-.091,0a1.063,1.063,0,0,0-.966.975L511.546,553.91a1.07,1.07,0,0,0,.277.807,1.089,1.089,0,0,0,.775.345l155.365,1.315a1.489,1.489,0,0,0,.848-.413,1.066,1.066,0,0,0,.191-.921l-119.881-453A1.061,1.061,0,0,0,548.087,101.248Zm-34.332,451.7,34.908-444.318,117.922,445.61Z" transform="translate(-511.543 -101.248)"/></g><g transform="translate(1698.279 521.413)"><path class="d" d="M889.024,282.376l-229-87.69L523.185,299.964,889.315,339.2l.009,2.141-369-39.543a1.07,1.07,0,0,1-.912-.771,1.053,1.053,0,0,1,.376-1.129L659.2,192.636a1.05,1.05,0,0,1,1.03-.15l228.782,87.6Z" transform="translate(-519.367 -192.414)"/></g><g transform="translate(1662.794 1080.355)"><path class="d" d="M512.6,68.915a1.077,1.077,0,0,0-.984.667,1.063,1.063,0,0,0,.249,1.166L666.587,218.7a1.063,1.063,0,0,0,1.152.213,1.076,1.076,0,0,0,.649-.975L669.036,71.3a1.059,1.059,0,0,0-1.052-1.066l-155.365-1.32Zm153.665,146.54L515.285,71.065,666.9,72.353Z" transform="translate(-511.543 -68.915)"/></g><g transform="translate(1816.772 1228.31)"><path class="d" d="M800.445,44.13,548.356-77.887l-.73,673.467L801.561,262.772l.018,3.488L547.4,599.381a1.065,1.065,0,0,1-1.909-.648l.739-678.316a1.065,1.065,0,0,1,.495-.9,1.093,1.093,0,0,1,.562-.163,1.054,1.054,0,0,1,.467.109l252.674,122.3Z" transform="translate(-545.494 80.649)"/></g><g transform="translate(1817.511 1081.675)"><path class="d" d="M547.362,68.916a1.065,1.065,0,0,0-1.057,1.057l-.649,146.639a1.052,1.052,0,0,0,.349.794,1.09,1.09,0,0,0,.835.268L751.065,194.48a1.064,1.064,0,0,0,.431-1.968L547.92,69.07A1.016,1.016,0,0,0,547.362,68.916Zm.427,146.508.635-143.56,199.3,120.852Z" transform="translate(-545.657 -68.916)"/></g><g transform="translate(1817.509 1205.116)"><path class="d" d="M799.422,102.209,750.5,44.058,550.494,66.775l249.364,120.7.014,2.372L546.258,67.088a1.063,1.063,0,0,1,.344-2.014L750.826,41.881l.118-.009a1.06,1.06,0,0,1,.816.381L799.4,98.881Z" transform="translate(-545.657 -41.872)"/></g><g transform="translate(2021.735 1181.102)"><path class="d" d="M639.809,63.567,593.436,86.624l46.772,55.594.018,3.329L590.937,86.96a1.062,1.062,0,0,1-.227-.9,1.09,1.09,0,0,1,.567-.739L639.8,61.195Z" transform="translate(-590.687 -61.195)"/></g><g transform="translate(2021.735 1167.478)"><path class="d" d="M639.741,76.715,600.769,107.06,639.8,87.654l.014,2.372-47.584,23.661a1.065,1.065,0,0,1-1.125-1.8L639.727,74.03Z" transform="translate(-590.687 -74.03)"/></g><g transform="translate(662.526 4.363)"><path class="d" d="M291.754,343.9l236.4-69,7.728-.041L294.91,345.194,722.37,565.232,619.1,274.434l2.254-.013,103.917,292.63a1.059,1.059,0,0,1-.3,1.161,1.078,1.078,0,0,1-1.188.145L291.563,345.865a1.067,1.067,0,0,1,.19-1.968Z" transform="translate(-290.991 -274.421)"/></g><g transform="translate(990.638 4.141)"><path class="d" d="M365.591,274.643l103.522,291.51L749.421,430.136l-345.3-155.687,5.125-.027L752.369,429.129a1.065,1.065,0,0,1,.027,1.927L468.973,568.589a1.1,1.1,0,0,1-.871.027,1.065,1.065,0,0,1-.594-.626L363.337,274.657Z" transform="translate(-363.337 -274.421)"/></g><g transform="translate(989.16 631.657)"><path class="d" d="M488.161,179.865a1.08,1.08,0,0,0-.635.213l-124.09,93.468a1.064,1.064,0,0,0,1,1.85l196.986-71.685a1.063,1.063,0,0,0-.064-2.018L488.47,179.91A1.015,1.015,0,0,0,488.161,179.865ZM370.407,270.956,488.375,182.1l69.3,20.708Z" transform="translate(-363.011 -179.865)"/></g><g transform="translate(989.159 653.44)"><path class="d" d="M561.053,161.316a1.107,1.107,0,0,0-.358.063L363.714,233.064a1.068,1.068,0,0,0-.7,1.016,1.057,1.057,0,0,0,.739.993L623.11,319.2a1.06,1.06,0,0,0,1.315-1.406l-62.378-155.81A1.057,1.057,0,0,0,561.053,161.316ZM367.347,234.007l193.108-70.279L621.6,316.472Z" transform="translate(-363.011 -161.316)"/></g><g transform="translate(1094.743 296.286)"><path class="d" d="M387.35,195.671a.873.873,0,0,0-.154.014,1.063,1.063,0,0,0-.9,1.111L404.8,532.166a1.067,1.067,0,0,0,.758.961l72.891,21.779a1.055,1.055,0,0,0,1.043-.249,1.081,1.081,0,0,0,.295-1.034l-91.4-357.149A1.067,1.067,0,0,0,387.35,195.671ZM406.884,531.3,389.019,207.517,477.258,552.33Z" transform="translate(-386.292 -195.671)"/></g><g transform="translate(1186.143 628.672)"><path class="d" d="M919.641,161.316H919.6L407.457,186.083a1.066,1.066,0,0,0-.844.49,1.052,1.052,0,0,0-.091.971L468.9,343.349a1.06,1.06,0,0,0,1.383.594L920.04,163.366a1.063,1.063,0,0,0-.4-2.05ZM409.054,188.138l504.328-24.391L470.48,341.571Z" transform="translate(-406.445 -161.316)"/></g><g transform="translate(1196.013 809.249)"><path class="d" d="M462.188,71.7a1.021,1.021,0,0,0-.386.073,1.059,1.059,0,0,0-.662.853l-52.51,406.416a1.06,1.06,0,0,0,1.705.971L690.544,261.275a1.059,1.059,0,0,0,.023-1.66L462.873,71.945A1.071,1.071,0,0,0,462.188,71.7ZM411.071,476.747,463,74.812l225.186,185.6Z" transform="translate(-408.621 -71.705)"/></g><g transform="translate(1196.01 996.915)"><path class="d" d="M689.888,47.556a1.073,1.073,0,0,0-.648.227L409.032,266.529a1.057,1.057,0,0,0-.4.966,1.074,1.074,0,0,0,.621.844L653.343,377.857a1.059,1.059,0,0,0,1.492-.853L690.95,48.74a1.065,1.065,0,0,0-.54-1.048A1.078,1.078,0,0,0,689.888,47.556ZM411.73,267.119,688.56,51.012l-35.679,324.3Z" transform="translate(-408.62 -47.556)"/></g><g transform="translate(1323.604 1325.179)"><path class="d" d="M554.314-80.648a.78.78,0,0,0-.177.018,1.058,1.058,0,0,0-.853.8l-116.5,483.747a1.08,1.08,0,0,0,.141.825,1.042,1.042,0,0,0,.689.467l493.167,97.7a1.063,1.063,0,0,0,1.1-1.619L555.211-80.163A1.066,1.066,0,0,0,554.314-80.648Zm-115.2,483.988L554.772-76.925,928.724,500.331Z" transform="translate(-436.754 80.648)"/></g><g transform="translate(1440.105 996.915)"><path class="d" d="M499.615,47.557a1.14,1.14,0,0,0-.526.141,1.069,1.069,0,0,0-.526.807L462.448,376.768a1.064,1.064,0,0,0,1.846.835L686.981,132.779a1.058,1.058,0,0,0-.354-1.687L500.055,47.652A1.068,1.068,0,0,0,499.615,47.557ZM464.92,373.748l35.6-323.556,183.9,82.243Z" transform="translate(-462.442 -47.557)"/></g><g transform="translate(1440.104 1080.355)"><path class="d" d="M686.193,47.557h-.032a1.088,1.088,0,0,0-.753.349L462.721,292.73a1.063,1.063,0,0,0,1.052,1.746l377.4-96.869a1.068,1.068,0,0,0,.472-1.8L686.932,47.856A1.059,1.059,0,0,0,686.193,47.557ZM466.685,291.528,686.252,50.146l152.54,145.878Z" transform="translate(-462.441 -47.557)"/></g><g transform="translate(1440.105 1228.31)"><path class="d" d="M840.9-80.648a1.258,1.258,0,0,0-.259.032l-377.4,96.869a1.068,1.068,0,0,0-.63,1.61L839.281,599.313a1.063,1.063,0,0,0,1.955-.581l.739-678.316a1.067,1.067,0,0,0-.412-.844A1.085,1.085,0,0,0,840.9-80.648Zm-375.7,98.6L839.843-78.209l-.73,673.345Z" transform="translate(-462.442 80.648)"/></g><g transform="translate(1094.743 296.286)"><path class="d" d="M387.35,195.671a1.081,1.081,0,0,0-.771.34,1.055,1.055,0,0,0-.254.989l91.4,357.149a1.06,1.06,0,0,0,.658.735,1.072,1.072,0,0,0,.98-.118L867.088,286.944a1.066,1.066,0,0,0-.408-1.923L387.55,195.689A1.413,1.413,0,0,0,387.35,195.671Zm92.057,356.474L388.8,198.089l474.976,88.556Z" transform="translate(-386.292 -195.671)"/></g><g transform="translate(1094.744 158.758)"><path class="d" d="M670.773,254.723a1.026,1.026,0,0,0-.458.1L386.892,392.36a1.065,1.065,0,0,0,.272,2L866.289,483.7a1.074,1.074,0,0,0,1.12-.517,1.061,1.061,0,0,0-.122-1.224l-195.7-226.864A1.057,1.057,0,0,0,670.773,254.723ZM390.728,392.863,670.506,257.1,863.7,481.048Z" transform="translate(-386.292 -254.723)"/></g><g transform="translate(1186.142 385.618)"><path class="d" d="M795.234,195.671a1.089,1.089,0,0,0-.6.19L406.9,463.679a1.069,1.069,0,0,0-.4,1.22,1.108,1.108,0,0,0,1.061.721L919.7,440.853a1.067,1.067,0,0,0,.9-1.551L796.187,196.252a1.077,1.077,0,0,0-.689-.549A1.267,1.267,0,0,0,795.234,195.671ZM411.182,463.312,794.844,198.3l123.1,240.506Z" transform="translate(-406.445 -195.671)"/></g><g transform="translate(1378.167 111.663)"><path class="d" d="M582.568,254.724a.975.975,0,0,0-.354.063l-132.721,47.09a1.058,1.058,0,0,0-.449,1.7l195.7,226.864a1.065,1.065,0,0,0,1.846-.93L583.611,255.549a1.075,1.075,0,0,0-.526-.694A1.1,1.1,0,0,0,582.568,254.724Zm-130.9,48.641L581.8,257.191,643.554,525.8Z" transform="translate(-448.785 -254.724)"/></g><g transform="translate(1510.891 111.664)"><path class="d" d="M479.109,254.724a1.061,1.061,0,0,0-.8.367,1.073,1.073,0,0,0-.236.934l62.982,273.959a1.067,1.067,0,0,0,.735.78,1.087,1.087,0,0,0,1.043-.254L797.708,284.466a1.055,1.055,0,0,0,.268-1.116,1.071,1.071,0,0,0-.911-.707L479.2,254.728Zm63.6,272.947L480.478,256.978l314.073,27.579Z" transform="translate(-478.049 -254.724)"/></g><g transform="translate(1573.873 385.618)"><path class="d" d="M493,201.132a1.066,1.066,0,0,0-.943,1.551L616.46,445.734a1.06,1.06,0,0,0,.712.553,1.049,1.049,0,0,0,.884-.2L757.471,338.837a1.066,1.066,0,0,0-.159-1.791L493.49,201.25A1.131,1.131,0,0,0,493,201.132ZM617.771,443.625,495.454,204.66,754.845,338.17Z" transform="translate(-491.936 -201.132)"/></g><g transform="translate(1573.872 139.578)"><path class="d" d="M747.87,230.71a1.048,1.048,0,0,0-.735.3L492.262,477.049a1.065,1.065,0,0,0,.435,1.787L857.153,587.741a1.063,1.063,0,0,0,1.32-1.333L748.9,231.458a1.063,1.063,0,0,0-.753-.712A1.114,1.114,0,0,0,747.87,230.71ZM495.051,477.316,747.372,233.74,855.851,585.134Z" transform="translate(-491.936 -230.71)"/></g><g transform="translate(1573.872 385.617)"><path class="d" d="M493,224.782a1.066,1.066,0,0,0-.485,2.014L756.338,362.587a1.052,1.052,0,0,0,.762.082l100.633-26.885a1.062,1.062,0,0,0,.028-2.045L493.305,224.827A1.037,1.037,0,0,0,493,224.782ZM756.946,360.509,503.691,230.152,853.552,334.7Z" transform="translate(-491.936 -224.782)"/></g><g transform="translate(0 250.185)"><path class="d" d="M145.969,245.617a1.064,1.064,0,0,0-.535,1.982l301.823,176.74a1.12,1.12,0,0,0,.816.109,1.056,1.056,0,0,0,.648-.508l62.419-111.083a1.058,1.058,0,0,0,.032-.975,1.076,1.076,0,0,0-.771-.594L146.159,245.635A.911.911,0,0,0,145.969,245.617ZM447.4,421.953,151.683,248.791l356.868,64.324Z" transform="translate(-144.908 -245.617)"/></g><g transform="translate(301.822 315.842)"><path class="d" d="M274.935,237.452l-.1,0a1.055,1.055,0,0,0-.825.535L211.595,349.079a1.067,1.067,0,0,0-.041.966,1.078,1.078,0,0,0,.762.6l186.341,37.026a1.065,1.065,0,0,0,1.02-1.728L275.755,237.828A1.058,1.058,0,0,0,274.935,237.452ZM214.171,348.838l60.941-108.457,121,144.612Z" transform="translate(-211.458 -237.452)"/></g><g transform="translate(891.52 1064.25)"><path class="d" d="M342.543,55.378a1.071,1.071,0,0,0-1.025,1.333L400.05,282.165a1.064,1.064,0,1,0,2.059-.535L343.577,56.176A1.073,1.073,0,0,0,342.543,55.378Z" transform="translate(-341.482 -55.378)"/></g><g transform="translate(891.519 1064.25)"><path class="d" d="M342.543,55.379a1.067,1.067,0,0,0-1.025,1.333l58.533,225.454a1.073,1.073,0,0,0,.508.658,1.063,1.063,0,0,0,.83.091l245.958-74.043a1.064,1.064,0,0,0,.163-1.973L343.02,55.492A1.05,1.05,0,0,0,342.543,55.379Zm59.29,225.182L344.162,58.436l300,149.175Z" transform="translate(-341.482 -55.379)"/></g><g transform="translate(891.519 777.924)"><path class="d" d="M429.258,105.089a1.072,1.072,0,0,0-1.016.757L341.528,392.173a1.066,1.066,0,0,0,1.637,1.175l357-255.006a1.064,1.064,0,0,0-.494-1.923L429.385,105.1A1.211,1.211,0,0,0,429.258,105.089ZM344.471,389.8l85.554-282.48,266.657,30.9Z" transform="translate(-341.482 -105.089)"/></g><g transform="translate(891.52 809.249)"><path class="d" d="M699.542,71.7a1.036,1.036,0,0,0-.612.2l-357,255.006a1.048,1.048,0,0,0-.444.948,1.061,1.061,0,0,0,.585.871L646.566,480.13a1.058,1.058,0,0,0,.975-.009,1.081,1.081,0,0,0,.553-.807L700.6,72.9a1.06,1.06,0,0,0-1.061-1.2Zm-354.936,255.9L698.177,75.052,646.171,477.563Z" transform="translate(-341.482 -71.705)"/></g><g transform="translate(792.46 577.383)"><path class="d" d="M320.7,168.222a1.063,1.063,0,0,0-.776,1.787L505.7,370.55a1.053,1.053,0,0,0,1.066.3,1.063,1.063,0,0,0,.757-.812l10.926-52.8a1.062,1.062,0,0,0-.4-1.066l-196.7-147.742A1.076,1.076,0,0,0,320.7,168.222ZM505.859,367.589,329.527,177.243l186.7,140.227Z" transform="translate(-319.64 -168.222)"/></g><g transform="translate(792.458 577.383)"><path class="d" d="M320.7,179.866a1.07,1.07,0,0,0-.975.644,1.058,1.058,0,0,0,.34,1.27l196.7,147.742a1.075,1.075,0,0,0,1.279,0l124.09-93.468a1.064,1.064,0,0,0-.463-1.9l-320.79-54.269A.853.853,0,0,0,320.7,179.866Zm196.7,147.469L324.847,182.709,638.884,235.84Z" transform="translate(-319.64 -179.866)"/></g><g transform="translate(792.459 296.286)"><path class="d" d="M622.982,200.473a1.077,1.077,0,0,0-.717.286L319.98,481.856a1.063,1.063,0,0,0-.295,1.084,1.074,1.074,0,0,0,.844.744l320.79,54.274a1.062,1.062,0,0,0,1.238-1.107l-18.5-335.371a1.062,1.062,0,0,0-.667-.93A1.045,1.045,0,0,0,622.982,200.473ZM323.01,481.947,622.053,203.866l18.309,331.77Z" transform="translate(-319.64 -200.473)"/></g><g transform="translate(1698.28 628.672)"><path class="d" d="M890.311,336.38,522.15,104.65,641.029,553.856l249.854-105.55.014,2.3L640.725,556.3a1.074,1.074,0,0,1-.884-.027,1.057,1.057,0,0,1-.558-.685l-119.881-453a1.069,1.069,0,0,1,.4-1.129,1.071,1.071,0,0,1,1.2-.041L890.3,333.858Z" transform="translate(-519.367 -101.248)"/></g><g transform="translate(1698.278 628.673)"><path class="d" d="M889.324,191.422,524.892,152.368,890.3,382.362l.014,2.526L519.866,151.72a1.063,1.063,0,0,1,.562-1.964,1.079,1.079,0,0,1,.118,0l368.769,39.521Z" transform="translate(-519.367 -149.756)"/></g><g transform="translate(1818.159 975.731)"><path class="d" d="M797.45,103.552,552.975,206.829,797.9,192.389l.009,2.132L546.93,209.315a1,1,0,0,1-1.1-.816,1.069,1.069,0,0,1,.621-1.224L797.436,101.248Z" transform="translate(-545.8 -101.248)"/></g><g transform="translate(364.24 315.841)"><path class="d" d="M226.279,237.263a1.043,1.043,0,0,0-.853.435,1.063,1.063,0,0,0,.041,1.311L349.39,387.122a1.078,1.078,0,0,0,.816.377l244.937.862h.009a1.064,1.064,0,0,0,.395-2.05L226.683,237.34A.968.968,0,0,0,226.279,237.263ZM350.705,385.371,229.831,240.9,589.624,386.21Z" transform="translate(-225.22 -237.262)"/></g><g transform="translate(364.24 73.798)"><path class="d" d="M524.565,237.263a1.059,1.059,0,0,0-.667.236L225.613,479.542a1.066,1.066,0,0,0,.272,1.814L594.749,630.327a1.078,1.078,0,0,0,1.07-.163,1.064,1.064,0,0,0,.376-1.011L525.617,238.138a1.05,1.05,0,0,0-1.052-.875Zm-296.209,242.8L523.84,240.287l69.916,387.341Z" transform="translate(-225.22 -237.263)"/></g><g transform="translate(488.161 463.951)"><path class="d" d="M253.6,212.441a1.065,1.065,0,0,0-.367,2.064l304.3,113.432a1.064,1.064,0,0,0,1.311-1.5l-59.358-112.57a1.057,1.057,0,0,0-.939-.567l-244.937-.862ZM555.663,324.966,259.568,214.59l238.338.835Z" transform="translate(-252.544 -212.441)"/></g><g transform="translate(662.524 73.798)"><path class="d" d="M292.051,237.263a1.019,1.019,0,0,0-.626.209,1.052,1.052,0,0,0-.417,1.043l70.578,391.014a1.048,1.048,0,0,0,.558.753,1.067,1.067,0,0,0,.939.023L724.726,461.782a1.068,1.068,0,0,0,.036-1.914L292.545,237.381A1.018,1.018,0,0,0,292.051,237.263Zm71.385,390.529L293.484,240.261,721.855,460.766Z" transform="translate(-290.99 -237.262)"/></g><g transform="translate(733.102 296.286)"><path class="d" d="M669.252,212.44a1.2,1.2,0,0,0-.445.1L307.168,381.067a1.047,1.047,0,0,0-.558.621,1.061,1.061,0,0,0,.064.839L366.031,495.1a1.069,1.069,0,0,0,1.669.286l302.281-281.1a1.066,1.066,0,0,0-.73-1.846ZM309.082,382.523,663.6,217.32,367.265,492.875Z" transform="translate(-306.552 -212.44)"/></g><g transform="translate(1938.328 446.889)"><path class="d" d="M701.074,216.7,575.86,263.342l125.822,72.211.014,2.463L572.835,264.059a1.063,1.063,0,0,1,.159-1.923l128.072-47.7Z" transform="translate(-572.297 -214.434)"/></g><g transform="translate(950.053 1289.704)"><path class="d" d="M355.448,19.136a1.064,1.064,0,0,0-.585,1.95L600.634,185.454a1.064,1.064,0,0,0,1.184-1.769L356.046,19.318A1.052,1.052,0,0,0,355.448,19.136Z" transform="translate(-354.388 -19.136)"/></g><g transform="translate(950.054 1215.661)"><path class="d" d="M601.4,19.137a.988.988,0,0,0-.3.045L355.148,93.225a1.064,1.064,0,0,0-.286,1.9L600.634,259.5a1.064,1.064,0,0,0,1.655-.884L602.475,20.2a1.064,1.064,0,0,0-1.07-1.066ZM357.919,94.613,600.344,21.631l-.181,234.991Z" transform="translate(-354.388 -19.137)"/></g><g transform="translate(1195.828 1215.661)"><path class="d" d="M409.823,19.137a1.042,1.042,0,0,0-.571.172,1.06,1.06,0,0,0-.49.889l-.181,238.415a1.06,1.06,0,0,0,1.56.939L654.42,130.659a1.061,1.061,0,0,0-.063-1.909L410.263,19.227A1.062,1.062,0,0,0,409.823,19.137Zm.884,237.708.181-235L651.494,129.8Z" transform="translate(-408.58 -19.137)"/></g><g transform="translate(1195.825 1325.179)"><path class="d" d="M653.918-59.108a1.077,1.077,0,0,0-.494.122L409.149,69.908a1.067,1.067,0,0,0-.508,1.3L536.418,426.068a1.033,1.033,0,0,0,1.061.7,1.063,1.063,0,0,0,.98-.812l116.5-483.747a1.065,1.065,0,0,0-.381-1.093A1.1,1.1,0,0,0,653.918-59.108ZM410.959,71.359,652.336-56,537.221,422Z" transform="translate(-408.579 59.108)"/></g><g transform="translate(1828.748 139.578)"><path class="d" d="M785.739,392.742,551.106,234.347,659.2,584.453,785.889,421.437l.018,3.447L659.622,587.374a1.066,1.066,0,0,1-1.859-.336L548.181,232.089a1.073,1.073,0,0,1,.385-1.17,1.059,1.059,0,0,1,.626-.208,1.09,1.09,0,0,1,.6.181l235.93,159.275Z" transform="translate(-548.135 -230.71)"/></g><g transform="translate(1828.747 81.064)"><path class="d" d="M784.63,275.907,551.779,333.75,785.727,491.687l.014,2.576L548.6,334.176a1.063,1.063,0,0,1,.34-1.914l235.672-58.546Z" transform="translate(-548.134 -273.716)"/></g><g transform="translate(1938.33 330.305)"><path class="d" d="M700.488,234.157,576.5,393.69l124.562-46.4.009,2.268-127.342,47.43a1.062,1.062,0,0,1-1.211-1.646L700.469,230.71Z" transform="translate(-572.297 -230.71)"/></g></g><g transform="translate(0 58.6)"><g transform="translate(1882.203 1896.675)"><path class="d" d="M569.935-74.542a11.1,11.1,0,0,1-11.152-11.039,11.1,11.1,0,0,1,11.039-11.157,11.1,11.1,0,0,1,11.157,11.043A11.1,11.1,0,0,1,569.935-74.542Z" transform="translate(-554.524 100.992)"/><path class="e" d="M573.255-71.227A11.1,11.1,0,0,0,584.3-82.379a11.1,11.1,0,0,0-11.157-11.043A11.1,11.1,0,0,0,562.1-82.266a11.1,11.1,0,0,0,11.152,11.039m.023,4.259a15.376,15.376,0,0,1-15.434-15.275,15.371,15.371,0,0,1,15.275-15.434A15.368,15.368,0,0,1,588.553-82.4a15.37,15.37,0,0,1-15.275,15.434Z" transform="translate(-557.844 97.677)"/></g><g transform="translate(144.49 93.246)"><path class="d" d="M182.514,316.477a6.848,6.848,0,1,1,6.812-6.884A6.848,6.848,0,0,1,182.514,316.477Z" transform="translate(-171.37 -298.526)"/><path class="e" d="M185.833,319.792a6.848,6.848,0,1,0-6.885-6.812,6.851,6.851,0,0,0,6.885,6.812m.018,4.259A11.1,11.1,0,1,1,196.9,312.889a11.118,11.118,0,0,1-11.048,11.161Z" transform="translate(-174.69 -301.841)"/></g><g transform="translate(270.208 8.726)"><path class="d" d="M212.881,339.216a9.481,9.481,0,1,1,9.429-9.529A9.482,9.482,0,0,1,212.881,339.216Z" transform="translate(-199.094 -315.995)"/><path class="e" d="M216.2,342.537a9.481,9.481,0,1,0-9.533-9.433,9.48,9.48,0,0,0,9.533,9.433m.018,4.254a13.738,13.738,0,1,1,13.669-13.805,13.747,13.747,0,0,1-13.669,13.805Z" transform="translate(-202.41 -319.316)"/></g><g transform="translate(2019.74 1135.101)"><path class="d" d="M597.376,88.9a8.225,8.225,0,1,1,8.181-8.268A8.225,8.225,0,0,1,597.376,88.9Z" transform="translate(-584.854 -68.197)"/><path class="e" d="M600.692,92.216a8.225,8.225,0,1,0-8.268-8.182,8.225,8.225,0,0,0,8.268,8.182m.022,4.259A12.481,12.481,0,1,1,613.133,83.93a12.5,12.5,0,0,1-12.418,12.545Z" transform="translate(-588.17 -71.512)"/></g><g transform="translate(1468.349 921.026)"><circle class="d" cx="14.099" cy="14.099" r="14.099" transform="translate(4.256 4.256)"/><path class="e" d="M485.019,148.574a14.1,14.1,0,1,0-14.173-14.023,14.1,14.1,0,0,0,14.173,14.023m.023,4.259a18.355,18.355,0,1,1,18.259-18.45,18.373,18.373,0,0,1-18.259,18.45Z" transform="translate(-466.592 -116.124)"/></g><g transform="translate(1662.985 1012.525)"><path class="d" d="M522.52,106.447a6.037,6.037,0,1,1-6.068-6A6.031,6.031,0,0,1,522.52,106.447Z" transform="translate(-506.188 -96.183)"/><path class="e" d="M519.835,115.835a6.037,6.037,0,1,0-6.068-6,6.031,6.031,0,0,0,6.068,6m.018,4.259A10.3,10.3,0,1,1,530.1,109.748a10.307,10.307,0,0,1-10.245,10.345Z" transform="translate(-509.508 -99.503)"/></g><g transform="translate(1809.842 1152.629)"><path class="d" d="M556.647,66.087a13.892,13.892,0,1,1-13.819,13.964A13.9,13.9,0,0,1,556.647,66.087Z" transform="translate(-538.569 -61.833)"/><path class="e" d="M560.112,97.186a13.892,13.892,0,1,0-13.964-13.819,13.9,13.9,0,0,0,13.964,13.819m.018,4.259A18.148,18.148,0,1,1,578.185,83.2a18.175,18.175,0,0,1-18.055,18.241Z" transform="translate(-541.889 -65.148)"/></g><g transform="translate(1814.323 1836.156)"><path class="d" d="M561.167-73.7a8.67,8.67,0,0,1-8.631,8.721,8.676,8.676,0,0,1-8.721-8.631,8.677,8.677,0,0,1,8.635-8.721A8.675,8.675,0,0,1,561.167-73.7Z" transform="translate(-539.561 86.586)"/><path class="e" d="M555.852-61.655a8.677,8.677,0,0,0,8.635-8.721,8.682,8.682,0,0,0-8.722-8.631,8.677,8.677,0,0,0-8.635,8.721,8.676,8.676,0,0,0,8.721,8.631m.023,4.259a12.949,12.949,0,0,1-13-12.867,12.95,12.95,0,0,1,12.867-13,12.95,12.95,0,0,1,13,12.871,12.949,12.949,0,0,1-12.867,13Z" transform="translate(-542.877 83.266)"/></g><g transform="translate(1179.818 579.093)"><path class="d" d="M416.525,218.241a12.552,12.552,0,1,1,12.49-12.617A12.55,12.55,0,0,1,416.525,218.241Z" transform="translate(-399.653 -188.879)"/><path class="e" d="M419.844,221.562a12.552,12.552,0,1,0-12.613-12.486,12.555,12.555,0,0,0,12.613,12.486m.023,4.254a16.808,16.808,0,1,1,16.722-16.889,16.827,16.827,0,0,1-16.722,16.889Z" transform="translate(-402.973 -192.2)"/></g><g transform="translate(1373.611 86.184)"><path class="d" d="M457.477,324.167A10.783,10.783,0,1,1,468.2,313.328,10.782,10.782,0,0,1,457.477,324.167Z" transform="translate(-442.383 -298.348)"/><path class="e" d="M460.8,327.484a10.783,10.783,0,1,0-10.835-10.726A10.783,10.783,0,0,0,460.8,327.484m.023,4.254a15.037,15.037,0,1,1,14.962-15.112,15.056,15.056,0,0,1-14.962,15.112Z" transform="translate(-445.703 -301.664)"/></g><g transform="translate(1503.139 35.888)"><path class="d" d="M489.256,340.241a13.98,13.98,0,1,1,13.905-14.05A13.981,13.981,0,0,1,489.256,340.241Z" transform="translate(-470.947 -308.022)"/><path class="e" d="M492.572,343.561a13.98,13.98,0,1,0-14.055-13.91,13.979,13.979,0,0,0,14.055,13.91m.018,4.259a18.239,18.239,0,1,1,18.146-18.332,18.258,18.258,0,0,1-18.146,18.332Z" transform="translate(-474.263 -311.342)"/></g><g transform="translate(1572.275 316)"><path class="d" d="M498.314,268.883a7.826,7.826,0,1,1,7.783-7.864A7.83,7.83,0,0,1,498.314,268.883Z" transform="translate(-486.191 -248.973)"/><path class="e" d="M501.63,272.2a7.826,7.826,0,1,0-7.869-7.787,7.825,7.825,0,0,0,7.869,7.787m.018,4.254a12.082,12.082,0,1,1,12.023-12.141,12.092,12.092,0,0,1-12.023,12.141Z" transform="translate(-489.507 -252.294)"/></g><g transform="translate(1828.773 444.472)"><path class="d" d="M562.227,251.972A15.148,15.148,0,1,1,577.3,236.747,15.148,15.148,0,0,1,562.227,251.972Z" transform="translate(-542.743 -217.417)"/><path class="e" d="M565.547,255.292a15.148,15.148,0,1,0-15.225-15.071,15.146,15.146,0,0,0,15.225,15.071m.023,4.259a19.407,19.407,0,1,1,19.307-19.506A19.429,19.429,0,0,1,565.57,259.55Z" transform="translate(-546.063 -220.737)"/></g><g transform="translate(0 182.16)"><path class="d" d="M150.032,295.906a6.229,6.229,0,1,1,6.2-6.263A6.231,6.231,0,0,1,150.032,295.906Z" transform="translate(-139.515 -279.188)"/><path class="e" d="M153.348,299.225a6.229,6.229,0,1,0-6.263-6.2,6.231,6.231,0,0,0,6.263,6.2m.023,4.259a10.488,10.488,0,1,1,10.436-10.545,10.5,10.5,0,0,1-10.436,10.545Z" transform="translate(-142.831 -282.508)"/></g><g transform="translate(297.973 355.054)"><path class="d" d="M219.6,263.779a10.075,10.075,0,1,1,10.028-10.127A10.072,10.072,0,0,1,219.6,263.779Z" transform="translate(-205.212 -239.37)"/><path class="e" d="M222.918,267.1a10.075,10.075,0,1,0-10.127-10.023A10.079,10.079,0,0,0,222.918,267.1m.023,4.259A14.334,14.334,0,1,1,237.2,256.949a14.351,14.351,0,0,1-14.259,14.409Z" transform="translate(-208.532 -242.69)"/></g><g transform="translate(891.665 996.375)"><path class="d" d="M346.493,116.151a6.084,6.084,0,1,1,6.05-6.114A6.088,6.088,0,0,1,346.493,116.151Z" transform="translate(-336.121 -99.729)"/><path class="e" d="M349.809,119.466a6.084,6.084,0,1,0-6.118-6.055,6.083,6.083,0,0,0,6.118,6.055m.018,4.259a10.341,10.341,0,1,1,10.291-10.395,10.353,10.353,0,0,1-10.291,10.395Z" transform="translate(-339.437 -103.044)"/></g><g transform="translate(1240.882 733.587)"><path class="d" d="M431.317,186.226a13.867,13.867,0,1,1,13.8-13.937A13.868,13.868,0,0,1,431.317,186.226Z" transform="translate(-413.121 -154.234)"/><path class="e" d="M434.633,189.546a13.867,13.867,0,1,0-13.937-13.8,13.862,13.862,0,0,0,13.937,13.8m.023,4.259a18.126,18.126,0,1,1,18.032-18.218A18.147,18.147,0,0,1,434.655,193.8Z" transform="translate(-416.437 -157.554)"/></g><g transform="translate(977.545 709.214)"><path class="d" d="M366.2,166.932a6.919,6.919,0,1,1-6.885,6.957A6.922,6.922,0,0,1,366.2,166.932Z" transform="translate(-355.057 -162.678)"/><path class="e" d="M369.58,184.084a6.919,6.919,0,1,0-6.953-6.88,6.916,6.916,0,0,0,6.953,6.88m.023,4.259a11.175,11.175,0,1,1,11.12-11.234,11.186,11.186,0,0,1-11.12,11.234Z" transform="translate(-358.373 -165.993)"/></g><g transform="translate(987.568 655.512)"><path class="d" d="M369.382,194.017a7.821,7.821,0,1,1,7.778-7.86A7.824,7.824,0,0,1,369.382,194.017Z" transform="translate(-357.263 -174.121)"/><path class="e" d="M372.7,197.333a7.821,7.821,0,1,0-7.86-7.783,7.82,7.82,0,0,0,7.86,7.783m.023,4.254a12.075,12.075,0,1,1,12.014-12.136,12.091,12.091,0,0,1-12.014,12.136Z" transform="translate(-360.583 -177.437)"/></g><g transform="translate(1113.359 563.745)"><path class="d" d="M395.411,211.6a6.12,6.12,0,1,1,6.091-6.15A6.122,6.122,0,0,1,395.411,211.6Z" transform="translate(-385.003 -195.105)"/><path class="e" d="M398.728,214.915a6.12,6.12,0,1,0-6.154-6.086,6.119,6.119,0,0,0,6.154,6.086m.023,4.259a10.377,10.377,0,1,1,10.322-10.431,10.39,10.39,0,0,1-10.322,10.431Z" transform="translate(-388.319 -198.42)"/></g><g transform="translate(1693.866 556.235)"><path class="d" d="M527.954,220.3a10.642,10.642,0,1,1,10.585-10.7A10.646,10.646,0,0,1,527.954,220.3Z" transform="translate(-513.001 -194.761)"/><path class="e" d="M531.27,223.625a10.642,10.642,0,1,0-10.7-10.59,10.642,10.642,0,0,0,10.7,10.59m.023,4.254a14.9,14.9,0,1,1,14.821-14.971,14.909,14.909,0,0,1-14.821,14.971Z" transform="translate(-516.317 -198.082)"/></g><g transform="translate(1812.155 1007.65)"><path class="d" d="M555.632,123.253a12.234,12.234,0,1,1,12.173-12.3A12.239,12.239,0,0,1,555.632,123.253Z" transform="translate(-539.082 -94.531)"/><path class="e" d="M558.948,126.569a12.234,12.234,0,1,0-12.3-12.173,12.233,12.233,0,0,0,12.3,12.173m.023,4.254a16.488,16.488,0,1,1,16.409-16.572,16.5,16.5,0,0,1-16.409,16.572Z" transform="translate(-542.399 -97.847)"/></g><g transform="translate(357.204 240.778)"><path class="d" d="M235.864,293.951a13.266,13.266,0,1,1,13.2-13.334A13.268,13.268,0,0,1,235.864,293.951Z" transform="translate(-218.276 -263.16)"/><path class="e" d="M239.18,297.27a13.266,13.266,0,1,0-13.334-13.2,13.265,13.265,0,0,0,13.334,13.2m.023,4.259a17.525,17.525,0,1,1,17.434-17.615A17.541,17.541,0,0,1,239.2,301.529Z" transform="translate(-221.592 -266.48)"/></g><g transform="translate(486.75 394.52)"><path class="d" d="M266.375,243.6A7.64,7.64,0,1,1,258.7,236,7.645,7.645,0,0,1,266.375,243.6Z" transform="translate(-246.836 -231.748)"/><path class="e" d="M262.093,254.6a7.64,7.64,0,1,0-7.678-7.6,7.645,7.645,0,0,0,7.678,7.6m.023,4.254A11.894,11.894,0,1,1,273.948,246.9a11.909,11.909,0,0,1-11.833,11.955Z" transform="translate(-250.156 -235.064)"/></g><g transform="translate(656.75 0)"><path class="d" d="M300.642,345.071a12,12,0,1,1,11.941-12.064A12.009,12.009,0,0,1,300.642,345.071Z" transform="translate(-284.324 -316.807)"/><path class="e" d="M303.958,348.392a12,12,0,1,0-12.064-11.941,12,12,0,0,0,12.064,11.941m.023,4.254a16.259,16.259,0,1,1,16.177-16.341,16.276,16.276,0,0,1-16.177,16.341Z" transform="translate(-287.64 -320.128)"/></g><g transform="translate(726.78 390.465)"><path class="d" d="M316.636,259.832a12.552,12.552,0,1,1,12.486-12.617A12.555,12.555,0,0,1,316.636,259.832Z" transform="translate(-299.765 -230.47)"/><path class="e" d="M319.952,263.153a12.552,12.552,0,1,0-12.617-12.49,12.554,12.554,0,0,0,12.617,12.49m.023,4.254a16.808,16.808,0,1,1,16.717-16.894,16.821,16.821,0,0,1-16.717,16.894Z" transform="translate(-303.081 -233.791)"/></g><g transform="translate(1090.025 223.549)"><path class="d" d="M395.116,294.137a10.948,10.948,0,1,1,10.889-11A10.944,10.944,0,0,1,395.116,294.137Z" transform="translate(-379.854 -267.987)"/><path class="e" d="M398.435,297.453a10.948,10.948,0,1,0-11.007-10.894,10.946,10.946,0,0,0,11.007,10.894m.023,4.259a15.2,15.2,0,1,1,15.125-15.284,15.223,15.223,0,0,1-15.125,15.284Z" transform="translate(-383.174 -271.302)"/></g><g transform="translate(790.65 507.553)"><path class="d" d="M326.18,226.976a8.037,8.037,0,1,1,8-8.077A8.038,8.038,0,0,1,326.18,226.976Z" transform="translate(-313.844 -206.644)"/><path class="e" d="M329.5,230.292a8.034,8.034,0,1,0-8.077-7.991,8.034,8.034,0,0,0,8.077,7.991m.023,4.259A12.293,12.293,0,1,1,341.75,222.2a12.308,12.308,0,0,1-12.227,12.354Z" transform="translate(-317.164 -209.965)"/></g><g transform="translate(946.669 1218.3)"><path class="d" d="M362.164,72.719a9.613,9.613,0,1,1,9.565-9.66A9.61,9.61,0,0,1,362.164,72.719Z" transform="translate(-348.245 -49.24)"/><path class="e" d="M365.484,76.034a9.613,9.613,0,1,0-9.66-9.565,9.613,9.613,0,0,0,9.66,9.565m.023,4.259a13.869,13.869,0,1,1,13.8-13.941,13.893,13.893,0,0,1-13.8,13.941Z" transform="translate(-351.565 -52.555)"/></g><g transform="translate(1195.098 1146.724)"><path class="d" d="M414.456,84.647a7.141,7.141,0,1,1,7.1-7.179A7.138,7.138,0,0,1,414.456,84.647Z" transform="translate(-403.022 -66.106)"/><path class="e" d="M417.775,87.967a7.141,7.141,0,1,0-7.175-7.107,7.144,7.144,0,0,0,7.175,7.107m.023,4.254A11.4,11.4,0,1,1,429.136,80.77,11.408,11.408,0,0,1,417.8,92.221Z" transform="translate(-406.342 -69.427)"/></g><g transform="translate(1216.477 1767.954)"><path class="d" d="M423.4-45.772A11.345,11.345,0,0,1,412-57.061a11.343,11.343,0,0,1,11.288-11.406,11.345,11.345,0,0,1,11.4,11.288A11.346,11.346,0,0,1,423.4-45.772Z" transform="translate(-407.736 72.726)"/><path class="e" d="M426.717-42.452A11.346,11.346,0,0,0,438-53.858a11.345,11.345,0,0,0-11.4-11.288A11.343,11.343,0,0,0,415.315-53.74a11.345,11.345,0,0,0,11.4,11.288m.023,4.254a15.622,15.622,0,0,1-15.683-15.524A15.622,15.622,0,0,1,426.58-69.4a15.625,15.625,0,0,1,15.683,15.524A15.622,15.622,0,0,1,426.739-38.2Z" transform="translate(-411.056 69.405)"/></g><g transform="translate(1186.685 1376.908)"><path class="d" d="M420.715,15.983A15.368,15.368,0,1,1,405.426,31.43,15.365,15.365,0,0,1,420.715,15.983Z" transform="translate(-401.167 -11.724)"/><path class="e" d="M424.193,50.038A15.368,15.368,0,1,0,408.746,34.75a15.365,15.365,0,0,0,15.447,15.288m.023,4.259A19.627,19.627,0,1,1,443.74,34.573,19.65,19.65,0,0,1,424.216,54.3Z" transform="translate(-404.487 -15.044)"/></g><g transform="translate(1438.489 1255.544)"><path class="d" d="M468.833,61.75a7.844,7.844,0,1,1,7.8-7.882A7.845,7.845,0,0,1,468.833,61.75Z" transform="translate(-456.692 -41.808)"/><path class="e" d="M472.149,65.065a7.844,7.844,0,1,0-7.887-7.8,7.838,7.838,0,0,0,7.887,7.8m.018,4.259A12.1,12.1,0,1,1,484.208,57.16a12.108,12.108,0,0,1-12.041,12.164Z" transform="translate(-460.008 -45.123)"/></g><g transform="translate(1321.111 1738.412)"><path class="d" d="M443.828-43.352a8.718,8.718,0,0,1-8.762-8.676,8.719,8.719,0,0,1,8.676-8.767,8.718,8.718,0,0,1,8.762,8.676A8.722,8.722,0,0,1,443.828-43.352Z" transform="translate(-430.807 65.054)"/><path class="e" d="M447.148-40.032a8.722,8.722,0,0,0,8.676-8.767,8.718,8.718,0,0,0-8.762-8.676,8.719,8.719,0,0,0-8.676,8.767,8.718,8.718,0,0,0,8.762,8.676m.023,4.254a12.992,12.992,0,0,1-13.043-12.912,12.994,12.994,0,0,1,12.912-13.043,12.992,12.992,0,0,1,13.044,12.912A12.992,12.992,0,0,1,447.17-35.777Z" transform="translate(-434.127 61.733)"/></g><g transform="translate(1826.827 69.639)"><path class="d" d="M554.764,323.707a8.148,8.148,0,1,1,8.1-8.186A8.146,8.146,0,0,1,554.764,323.707Z" transform="translate(-542.314 -303.158)"/><path class="e" d="M558.084,327.022a8.148,8.148,0,1,0-8.191-8.1,8.148,8.148,0,0,0,8.191,8.1m.018,4.259a12.4,12.4,0,1,1,12.345-12.467A12.419,12.419,0,0,1,558.1,331.281Z" transform="translate(-545.634 -306.473)"/></g><g transform="translate(1934.418 422.593)"><circle class="d" cx="10.141" cy="10.141" r="10.141" transform="translate(4.257 4.256)"/><path class="e" d="M583.807,252.306a10.141,10.141,0,1,0-10.2-10.087,10.14,10.14,0,0,0,10.2,10.087m.022,4.259a14.4,14.4,0,1,1,14.322-14.472,14.413,14.413,0,0,1-14.322,14.472Z" transform="translate(-569.357 -227.77)"/></g></g></g></g></g></svg>