<svg xmlns="http://www.w3.org/2000/svg" width="79.767" height="88.951" viewBox="0 0 79.767 88.951"><defs><style>.a{fill:#ec3237;}</style></defs><g transform="translate(-34.289 -23.5)"><path class="a" d="M124.269,197.2h-16.33a1.064,1.064,0,1,1,0-2.128h16.33a1.064,1.064,0,0,1,0,2.128Z" transform="translate(-41.693 -98.55)"/><path class="a" d="M124.269,208.378h-16.33a1.064,1.064,0,1,1,0-2.128h16.33a1.064,1.064,0,0,1,0,2.128Z" transform="translate(-41.693 -104.971)"/><g transform="translate(34.289 23.5)"><path class="a" d="M112.689,61.43A24.029,24.029,0,1,0,80.22,96.862a14.18,14.18,0,0,1,4.561,10.569v.286a4.01,4.01,0,0,0,2.271,3.607v10.943a4.472,4.472,0,0,0,4.467,4.466h.771v.6a3.277,3.277,0,0,0,3.277,3.277h1.467a3.277,3.277,0,0,0,3.277-3.277v-.6h.771a4.471,4.471,0,0,0,4.466-4.466V111.323a4.009,4.009,0,0,0,2.271-3.607v-.511a14.388,14.388,0,0,1,4.745-10.512,24.024,24.024,0,0,0,.128-35.262Zm-14.51,65.9a1.149,1.149,0,0,1-1.149,1.149H95.567a1.149,1.149,0,0,1-1.149-1.149v-.6h3.761Zm2.9-2.731H91.519a2.341,2.341,0,0,1-2.339-2.338v-10.54h14.236v10.541a2.341,2.341,0,0,1-2.338,2.338Zm10.044-29.479A16.519,16.519,0,0,0,105.69,107.2v.511a1.883,1.883,0,0,1-1.881,1.881H88.79a1.883,1.883,0,0,1-1.88-1.881v-.286a16.311,16.311,0,0,0-5.264-12.151,21.865,21.865,0,0,1-7.233-17.169A22.108,22.108,0,0,1,94.731,57.154q.8-.055,1.585-.055a21.9,21.9,0,0,1,14.806,38.025Z" transform="translate(-56.194 -41.66)"/><path class="a" d="M126.564,32.686a1.064,1.064,0,0,0,1.064-1.064V24.564a1.064,1.064,0,0,0-2.128,0v7.058A1.064,1.064,0,0,0,126.564,32.686Z" transform="translate(-86.68 -23.5)"/><path class="a" d="M208.249,114.71h-7.058a1.064,1.064,0,0,0,0,2.128h7.058a1.064,1.064,0,0,0,0-2.128Z" transform="translate(-129.546 -75.891)"/><path class="a" d="M42.411,114.71H35.353a1.064,1.064,0,1,0,0,2.128h7.058a1.064,1.064,0,1,0,0-2.128Z" transform="translate(-34.289 -75.891)"/><path class="a" d="M66.307,57.022a1.064,1.064,0,1,0,1.505-1.5l-4.991-4.991a1.064,1.064,0,1,0-1.5,1.5Z" transform="translate(-49.634 -38.845)"/><path class="a" d="M180.085,167.791a1.064,1.064,0,1,0-1.505,1.5l4.991,4.991a1.064,1.064,0,1,0,1.5-1.5Z" transform="translate(-116.99 -106.201)"/><path class="a" d="M183.571,50.526l-4.991,4.991a1.064,1.064,0,1,0,1.5,1.5l4.991-4.991a1.064,1.064,0,1,0-1.5-1.5Z" transform="translate(-116.99 -38.845)"/><path class="a" d="M66.307,167.791l-4.991,4.991a1.064,1.064,0,1,0,1.5,1.5l4.991-4.991a1.064,1.064,0,0,0-1.5-1.5Z" transform="translate(-49.634 -106.201)"/></g><path class="a" d="M107.348,105.644H104.1a2.5,2.5,0,0,1-2.417-1.873l-.774-3-2.67,1.575a2.5,2.5,0,0,1-3.034-.385l-2.3-2.3a2.5,2.5,0,0,1-.386-3.033l1.575-2.672-3-.774a2.5,2.5,0,0,1-1.873-2.418V87.516A2.5,2.5,0,0,1,91.089,85.1l3-.774-1.575-2.671A2.5,2.5,0,0,1,92.9,78.62l2.3-2.3a2.5,2.5,0,0,1,3.033-.386l2.672,1.575.774-3a2.5,2.5,0,0,1,2.418-1.873h3.25a2.5,2.5,0,0,1,2.418,1.872l.774,3,2.671-1.575a2.5,2.5,0,0,1,3.034.385l2.3,2.3a2.5,2.5,0,0,1,.386,3.033l-1.577,2.672,3,.774a2.5,2.5,0,0,1,1.873,2.418v3.25a2.5,2.5,0,0,1-1.872,2.418l-3,.774,1.575,2.671a2.5,2.5,0,0,1-.385,3.034l-2.3,2.3a2.5,2.5,0,0,1-3.032.386l-2.672-1.577-.774,3a2.5,2.5,0,0,1-2.416,1.871Zm-5.764-7.576a1.064,1.064,0,0,1,1.03.8l1.127,4.373a.369.369,0,0,0,.357.276h3.25a.369.369,0,0,0,.358-.277l1.127-4.371a1.064,1.064,0,0,1,1.573-.65l3.889,2.3a.37.37,0,0,0,.447-.058l2.3-2.3a.37.37,0,0,0,.057-.449L114.8,93.82a1.064,1.064,0,0,1,.651-1.571l4.373-1.127a.369.369,0,0,0,.275-.357V87.516a.369.369,0,0,0-.276-.357l-4.373-1.127a1.064,1.064,0,0,1-.651-1.571l2.3-3.889a.369.369,0,0,0-.058-.448l-2.3-2.3a.37.37,0,0,0-.449-.057L110.4,80.064a1.064,1.064,0,0,1-1.571-.651l-1.127-4.373a.369.369,0,0,0-.357-.276H104.1a.369.369,0,0,0-.357.277l-1.127,4.372a1.064,1.064,0,0,1-1.575.651L97.155,77.77a.369.369,0,0,0-.448.058l-2.3,2.3a.37.37,0,0,0-.057.449l2.295,3.888A1.064,1.064,0,0,1,96,86.033L91.623,87.16a.369.369,0,0,0-.276.357v3.25a.37.37,0,0,0,.277.358L96,92.251a1.064,1.064,0,0,1,.651,1.571l-2.3,3.889a.37.37,0,0,0,.057.448l2.3,2.3a.371.371,0,0,0,.449.057l3.886-2.3a1.067,1.067,0,0,1,.542-.146Z" transform="translate(-31.55 -28.223)"/><path class="a" d="M119.846,109.308a6.044,6.044,0,1,1,6.046-6.044A6.044,6.044,0,0,1,119.846,109.308Zm0-9.963a3.916,3.916,0,1,0,3.918,3.916A3.916,3.916,0,0,0,119.846,99.345Z" transform="translate(-45.674 -42.345)"/></g></svg>