<svg xmlns="http://www.w3.org/2000/svg" width="73.021" height="73.02" viewBox="0 0 73.021 73.02"><defs><style>.a{fill:#ec3237;}</style></defs><g transform="translate(-46.5 -28.317)"><path class="a" d="M205.508,102.273a1.007,1.007,0,0,1-1.008-1.008V90.976a1.008,1.008,0,0,1,2.015,0v10.29A1.007,1.007,0,0,1,205.508,102.273Z" transform="translate(-94.323 -36.805)"/><path class="a" d="M146.656,48.515H136.508a1.008,1.008,0,1,1,0-2.015h10.148a1.008,1.008,0,0,1,0,2.015Z" transform="translate(-53.131 -10.855)"/><g transform="translate(46.5 28.317)"><path class="a" d="M111.184,78.338h-9.441a1.008,1.008,0,0,0-.755,1.675,7.643,7.643,0,1,1-11.447,0,1.008,1.008,0,0,0-.755-1.675H80.354V71.851a9.657,9.657,0,1,0,0-16.849V47.508A1.007,1.007,0,0,0,79.346,46.5H50.939A4.444,4.444,0,0,0,46.5,50.939v56.814a4.444,4.444,0,0,0,4.439,4.439h56.814a4.444,4.444,0,0,0,4.439-4.439V79.346a1.008,1.008,0,0,0-1.008-1.008ZM50.939,48.515h27.4v8.433a1.008,1.008,0,0,0,1.675.755,7.643,7.643,0,1,1,0,11.446,1.008,1.008,0,0,0-1.675.755v8.434H71.852a9.659,9.659,0,1,0-16.849,0H48.515v-27.4a2.427,2.427,0,0,1,2.424-2.424Zm-2.424,59.238v-27.4h8.434a1.008,1.008,0,0,0,.755-1.675,7.643,7.643,0,1,1,11.447,0,1.008,1.008,0,0,0,.755,1.675h8.434V86.84a9.659,9.659,0,1,0,0,16.849v6.488h-27.4a2.427,2.427,0,0,1-2.424-2.424Zm61.662,0a2.427,2.427,0,0,1-2.424,2.424h-27.4v-8.433a1.008,1.008,0,0,0-1.675-.755,7.643,7.643,0,1,1,0-11.447,1.008,1.008,0,0,0,1.675-.755V80.354H86.84a9.659,9.659,0,1,0,16.849,0h6.488Z" transform="translate(-46.5 -39.172)"/><path class="a" d="M188.837,37.669h0l-1.982-.511,1.041-1.764a2.082,2.082,0,0,0-.322-2.529l-1.723-1.723a2.083,2.083,0,0,0-2.53-.322l-1.763,1.041-.511-1.983a2.082,2.082,0,0,0-2.016-1.56h-2.437a2.082,2.082,0,0,0-2.016,1.561l-.511,1.982L172.3,30.819a2.083,2.083,0,0,0-2.529.322l-1.724,1.724a2.083,2.083,0,0,0-.321,2.53l1.041,1.763-1.983.511a2.082,2.082,0,0,0-1.561,2.016v2.437a2.083,2.083,0,0,0,1.562,2.016l1.982.511-1.041,1.764a2.082,2.082,0,0,0,.322,2.529l1.723,1.723a2.081,2.081,0,0,0,2.53.321l1.763-1.041.511,1.984a2.082,2.082,0,0,0,2.015,1.56h2.437a2.083,2.083,0,0,0,2.016-1.562l.511-1.982,1.764,1.041a2.082,2.082,0,0,0,2.529-.322l1.723-1.723a2.082,2.082,0,0,0,.321-2.53l-1.041-1.763,1.984-.511a2.083,2.083,0,0,0,1.56-2.016V39.684a2.083,2.083,0,0,0-1.561-2.015Zm-.455,4.453a.067.067,0,0,1-.05.065l-3.279.845a1.007,1.007,0,0,0-.616,1.488l1.721,2.915a.068.068,0,0,1-.01.082l-1.723,1.723a.068.068,0,0,1-.081.011l-2.916-1.721a1.007,1.007,0,0,0-1.488.616l-.845,3.278a.068.068,0,0,1-.065.05h-2.437a.067.067,0,0,1-.065-.05l-.845-3.279a1.008,1.008,0,0,0-1.488-.616l-2.915,1.721a.067.067,0,0,1-.082-.01l-1.723-1.723a.067.067,0,0,1-.011-.081l1.721-2.916a1.007,1.007,0,0,0-.616-1.488l-3.279-.845a.067.067,0,0,1-.05-.065V39.684a.067.067,0,0,1,.05-.065l3.279-.845a1.007,1.007,0,0,0,.616-1.488l-1.721-2.915a.068.068,0,0,1,.01-.082l1.723-1.723a.067.067,0,0,1,.081-.011l2.916,1.721a1.007,1.007,0,0,0,1.488-.616l.845-3.279a.067.067,0,0,1,.065-.05h2.437a.067.067,0,0,1,.065.049l.845,3.279a1.007,1.007,0,0,0,1.488.616l2.915-1.721a.068.068,0,0,1,.082.01l1.723,1.723a.067.067,0,0,1,.011.081l-1.721,2.916a1.007,1.007,0,0,0,.616,1.488l3.279.845a.068.068,0,0,1,.05.065v2.438Z" transform="translate(-117.377 -28.317)"/><path class="a" d="M189.255,47.487a4.86,4.86,0,1,0,4.86,4.86A4.866,4.866,0,0,0,189.255,47.487Zm0,7.7a2.845,2.845,0,1,1,2.845-2.845A2.848,2.848,0,0,1,189.255,55.192Z" transform="translate(-128.821 -39.761)"/></g></g></svg>