<svg xmlns="http://www.w3.org/2000/svg" width="97.749" height="68.283" viewBox="0 0 97.749 68.283"><defs><style>.a{fill:#ec3237;}</style></defs><g transform="translate(-31.833 -27.807)"><g transform="translate(42.991 44.401)"><path class="a" d="M60.469,82.312a3.824,3.824,0,0,1-2.255-.747,3.78,3.78,0,0,1-1.394-4.289l.605-1.865a1.292,1.292,0,0,0-.47-1.448l-1.586-1.152a3.837,3.837,0,0,1,2.255-6.941h1.961a1.292,1.292,0,0,0,1.232-.894l.606-1.865a3.837,3.837,0,0,1,7.3,0l.606,1.865a1.292,1.292,0,0,0,1.232.894H72.52a3.837,3.837,0,0,1,2.255,6.941l-1.587,1.152a1.292,1.292,0,0,0-.471,1.448l.606,1.865a3.837,3.837,0,0,1-5.9,4.289l-1.586-1.152a1.29,1.29,0,0,0-1.525,0l-1.586,1.152a3.823,3.823,0,0,1-2.253.747Zm-2.846-13.9a1.3,1.3,0,0,0-.762,2.344l1.586,1.152a3.825,3.825,0,0,1,1.4,4.29l-.6,1.864A1.3,1.3,0,0,0,61.23,79.51l1.586-1.152a3.824,3.824,0,0,1,4.51,0l1.586,1.152a1.3,1.3,0,0,0,1.993-1.448L70.3,76.2a3.826,3.826,0,0,1,1.394-4.289l1.586-1.152a1.3,1.3,0,0,0-.762-2.344h-1.96a3.827,3.827,0,0,1-3.649-2.65L66.3,63.9a1.295,1.295,0,0,0-2.464,0l-.606,1.865a3.826,3.826,0,0,1-3.649,2.65Z" transform="translate(-53.787 -60.459)"/><path class="a" d="M112.477,82.312a3.823,3.823,0,0,1-2.255-.747,3.779,3.779,0,0,1-1.394-4.289l.605-1.865a1.292,1.292,0,0,0-.47-1.448l-1.587-1.152a3.837,3.837,0,0,1,2.256-6.941h1.959a1.292,1.292,0,0,0,1.232-.894l.606-1.865a3.837,3.837,0,0,1,7.3,0l.606,1.865a1.292,1.292,0,0,0,1.232.894h1.961a3.837,3.837,0,0,1,2.256,6.941l-1.586,1.152a1.292,1.292,0,0,0-.471,1.448l.606,1.865a3.837,3.837,0,0,1-5.9,4.289l-1.583-1.152a1.29,1.29,0,0,0-1.525,0l-1.586,1.152A3.824,3.824,0,0,1,112.477,82.312Zm-2.846-13.9a1.3,1.3,0,0,0-.762,2.344l1.586,1.152a3.825,3.825,0,0,1,1.393,4.29l-.6,1.864a1.295,1.295,0,0,0,1.993,1.448l1.587-1.152a3.824,3.824,0,0,1,4.51,0l1.586,1.152a1.295,1.295,0,0,0,1.993-1.448l-.605-1.865a3.825,3.825,0,0,1,1.394-4.289l1.586-1.152a1.3,1.3,0,0,0-.762-2.344h-1.955a3.827,3.827,0,0,1-3.649-2.65l-.606-1.865a1.295,1.295,0,0,0-2.464,0l-.606,1.865a3.827,3.827,0,0,1-3.649,2.65Z" transform="translate(-79.364 -60.458)"/><path class="a" d="M164.487,82.312a3.822,3.822,0,0,1-2.255-.747,3.78,3.78,0,0,1-1.394-4.289l.606-1.865a1.292,1.292,0,0,0-.47-1.448l-1.587-1.152a3.837,3.837,0,0,1,2.255-6.941H163.6a1.292,1.292,0,0,0,1.232-.894l.606-1.865a3.837,3.837,0,0,1,7.3,0l.606,1.865a1.292,1.292,0,0,0,1.232.894h1.961a3.837,3.837,0,0,1,2.254,6.941l-1.586,1.152a1.292,1.292,0,0,0-.471,1.448l.606,1.865a3.837,3.837,0,0,1-5.9,4.289l-1.586-1.152a1.29,1.29,0,0,0-1.525,0l-1.586,1.152a3.824,3.824,0,0,1-2.253.747Zm-2.846-13.9a1.3,1.3,0,0,0-.762,2.344l1.587,1.152a3.826,3.826,0,0,1,1.393,4.29l-.605,1.864a1.3,1.3,0,0,0,1.993,1.448l1.586-1.152a3.824,3.824,0,0,1,4.51,0l1.586,1.152a1.3,1.3,0,0,0,1.993-1.448l-.6-1.865a3.825,3.825,0,0,1,1.394-4.289l1.586-1.152a1.3,1.3,0,0,0-.762-2.344h-1.961a3.826,3.826,0,0,1-3.649-2.65l-.606-1.865a1.295,1.295,0,0,0-2.464,0l-.606,1.865a3.827,3.827,0,0,1-3.649,2.65Z" transform="translate(-104.941 -60.459)"/></g><path class="a" d="M125.769,27.807H35.645a3.816,3.816,0,0,0-3.812,3.812v47.7a3.816,3.816,0,0,0,3.812,3.812H64.586a3.789,3.789,0,0,1,2.694,1.118L78.013,94.973a3.812,3.812,0,0,0,5.391,0l10.731-10.73a3.787,3.787,0,0,1,2.694-1.118H125.77a3.816,3.816,0,0,0,3.812-3.812V31.619a3.816,3.816,0,0,0-3.812-3.812Zm1.271,51.508a1.271,1.271,0,0,1-1.271,1.271H96.828a6.309,6.309,0,0,0-4.492,1.861L81.605,93.177a1.3,1.3,0,0,1-1.8,0l-10.73-10.73a6.311,6.311,0,0,0-4.493-1.861H35.645a1.271,1.271,0,0,1-1.271-1.271v-47.7a1.271,1.271,0,0,1,1.271-1.271h90.125a1.271,1.271,0,0,1,1.271,1.271Z" transform="translate(0 0)"/></g></svg>