<svg xmlns="http://www.w3.org/2000/svg" width="70.35" height="98.997" viewBox="0 0 70.35 98.997"><defs><style>.a{fill:#ec3237;}</style></defs><g transform="translate(0.001)"><path class="a" d="M17.619,62.345A7.353,7.353,0,0,0,9.2,50.535a29.435,29.435,0,0,1-5.331-16.99A29.738,29.738,0,0,1,31.854,3.866,1.935,1.935,0,1,0,31.631,0,33.611,33.611,0,0,0,0,33.545,33.272,33.272,0,0,0,6.279,53.1a7.352,7.352,0,0,0,11.34,9.241ZM9.957,54.684a3.482,3.482,0,1,1,0,4.924,3.473,3.473,0,0,1,0-4.924Zm0,0" transform="translate(0 0)"/><path class="a" d="M108.8,77.855a6.875,6.875,0,0,0-3.37.878,6.918,6.918,0,0,0-11.589-2.718,7.008,7.008,0,0,0-1.159-.967,33.607,33.607,0,0,0,19.887-30.677,33.289,33.289,0,0,0-6.279-19.56,7.356,7.356,0,1,0-2.924,2.566A29.74,29.74,0,0,1,85.805,73.313V62.9A19.746,19.746,0,1,0,59.228,44.372a19.584,19.584,0,0,0,3.924,11.815,19.949,19.949,0,0,0,8.811,6.644V91.289L69.532,87.3a7.126,7.126,0,0,0-9.705-2.478,7.2,7.2,0,0,0-2.863,9.343l7.217,14.579a1.935,1.935,0,1,0,3.468-1.716L60.44,92.467a3.3,3.3,0,0,1,5.789-3.152l6.017,9.872a1.935,1.935,0,0,0,3.587-1.008V53.791a3.052,3.052,0,0,1,6.1,0v7.653c0,.014,0,.027,0,.042v29.05a1.935,1.935,0,0,0,3.869,0V80.811a3.052,3.052,0,1,1,6.1,0V91.238a1.935,1.935,0,1,0,3.869,0V80.811a3.052,3.052,0,1,1,6.1,0V91.369a1.935,1.935,0,1,0,3.869,0V84.777a3.052,3.052,0,0,1,6.1,0v23.11a1.935,1.935,0,1,0,3.869,0V84.777a6.929,6.929,0,0,0-6.921-6.921ZM97.689,23.233a3.483,3.483,0,1,1,4.925,0,3.486,3.486,0,0,1-4.925,0ZM63.1,44.371A15.876,15.876,0,1,1,85.805,58.705V53.791a6.874,6.874,0,0,0-.7-3.031,8.86,8.86,0,1,0-12.382-.115,6.877,6.877,0,0,0-.76,3.146v4.833A15.8,15.8,0,0,1,63.1,44.371Zm12.276,3.458a4.943,4.943,0,0,1-1.392-3.458A4.992,4.992,0,1,1,82.5,47.9a6.9,6.9,0,0,0-7.131-.066Zm0,0" transform="translate(-45.376 -10.826)"/><path class="a" d="M201.129,7.436a1.937,1.937,0,1,0-1.367-.567A1.947,1.947,0,0,0,201.129,7.436Zm0,0" transform="translate(-160.681 -2.877)"/></g></svg>