<svg xmlns="http://www.w3.org/2000/svg" width="64" height="64" viewBox="0 0 64 64"><path d="M63,0H23a1,1,0,0,0-1,1V20l-6,0V18.91A8,8,0,0,0,20,12V8.5a8.46,8.46,0,0,0-2.219-5.706.972.972,0,0,0-.075-.082A8.488,8.488,0,0,0,3,8.5V9a1.158,1.158,0,0,0,.024.12.944.944,0,0,0,.039.193,1.01,1.01,0,0,0,.08.173.835.835,0,0,0,.246.286.872.872,0,0,0,.153.1.987.987,0,0,0,.19.071,1.051,1.051,0,0,0,.111.041c.055.009.1.011.157.019v2A8,8,0,0,0,8,18.91V20H5.01L5,20a5.006,5.006,0,0,0-5,5v6a1,1,0,0,0,2,0V25a3,3,0,0,1,2.993-3h3.6l.7.7c.01.011.024.014.035.023a.986.986,0,0,0,.252.167.8.8,0,0,0,.086.037,1.01,1.01,0,0,0,.332.065h.008a.984.984,0,0,0,.406-.1c.012,0,.023,0,.035-.008L12,22.113l1.553.776c.012.006.023,0,.035.008a.988.988,0,0,0,.406.1H14a1.01,1.01,0,0,0,.332-.065.8.8,0,0,0,.086-.037.987.987,0,0,0,.253-.168c.01-.009.024-.013.034-.022L15.414,22,23,22h1a4,4,0,0,0,4-4,1,1,0,0,1,2,0,6.006,6.006,0,0,1-6,6H19a1,1,0,0,0-1,1v6a1,1,0,0,0,2,0V26h2v5a1,1,0,0,0,1,1H63a1,1,0,0,0,1-1V1a1,1,0,0,0-1-1ZM17.169,5.328a6.47,6.47,0,0,1,.708,1.923,4.107,4.107,0,0,0-1.312-.694ZM11.5,2A6.468,6.468,0,0,1,15.78,3.62L14.3,6.638c-.4.116-.806.271-1.242.443A14.687,14.687,0,0,1,5.02,8.112,6.5,6.5,0,0,1,11.5,2ZM6,11.995V10.219a16.244,16.244,0,0,0,7.792-1.278c1.886-.747,2.447-.961,4.208,1.275v1.779A6,6,0,0,1,6,12Zm6,8a7.959,7.959,0,0,0,2-.264v.853l-.2.2L12.448,20.1c-.022-.011-.046-.009-.068-.019a1.08,1.08,0,0,0-.195-.053A.975.975,0,0,0,12,20.005a1.052,1.052,0,0,0-.184.023,1,1,0,0,0-.195.053c-.022.01-.046.008-.068.019l-1.355.678-.2-.2v-.853a7.914,7.914,0,0,0,2,.264ZM62,30H24V26a8.009,8.009,0,0,0,8-8,3,3,0,0,0-6,0,2,2,0,0,1-2,2V2H62Z"/><path d="M6,31V26a1,1,0,0,0-2,0v5a1,1,0,0,0,2,0Z"/><path d="M60,56c-.011,0-.019.006-.029.006H58V53.91a7.994,7.994,0,0,0,4-6.838c0-.006,0-.012,0-.019s0-.034,0-.052V42.01S62,42,62,42a4,4,0,0,0-3-3.859V36a1,1,0,0,0-1-1H53A7.009,7.009,0,0,0,46,42h0V47c0,.018,0,.034,0,.052s0,.013,0,.019a7.994,7.994,0,0,0,4,6.838V56H48.029C48.018,56,48.01,56,48,56a4,4,0,0,0-4,4v3a1,1,0,0,0,1,1H63a1,1,0,0,0,1-1V59.995a4,4,0,0,0-4-4ZM53,37h4v2a1,1,0,0,0,1,1,2,2,0,0,1,2,1.991s0,0,0,.005v4.739a7.147,7.147,0,0,1-12,0V42A5.006,5.006,0,0,1,53,37ZM49.328,50.749a9.35,9.35,0,0,0,9.344,0,5.987,5.987,0,0,1-9.344,0ZM54,54.992a7.959,7.959,0,0,0,2-.264v1.267H52V54.728A7.914,7.914,0,0,0,54,54.992ZM47.98,58c.007,0,.013,0,.02,0h3c.012,0,.021-.007.034-.007h5.932c.013,0,.022.007.034.007h3c.007,0,.013,0,.02,0A2,2,0,0,1,62,60V62H46V60A2,2,0,0,1,47.98,58Z"/><path d="M1,64H19a1,1,0,0,0,1-1V59.995a4,4,0,0,0-4-4c-.011,0-.019.006-.029.006H14V53.91a7.994,7.994,0,0,0,4-6.838c0-.006,0-.012,0-.019s0-.034,0-.052V42.995A8,8,0,0,0,2,43V47c0,.018,0,.034,0,.052s0,.013,0,.019A7.994,7.994,0,0,0,6,53.91V56H4.029C4.018,56,4.01,56,4,56a4,4,0,0,0-4,4V63a1,1,0,0,0,1,1Zm9-27a6,6,0,0,1,6,6v3.739A6.959,6.959,0,0,1,10,50a6.926,6.926,0,0,1-6-3.263V43a6,6,0,0,1,6-6ZM5.328,50.749A8.945,8.945,0,0,0,10,52a8.945,8.945,0,0,0,4.672-1.251,5.987,5.987,0,0,1-9.344,0ZM10,54.992a7.959,7.959,0,0,0,2-.264v1.267H8V54.728A7.914,7.914,0,0,0,10,54.992ZM3.98,58c.007,0,.013,0,.02,0H7c.012,0,.021-.007.034-.007h5.932c.013,0,.022.007.034.007h3c.007,0,.013,0,.02,0A2,2,0,0,1,18,60V62H2V60A2,2,0,0,1,3.98,58Z"/><path d="M28,56H26.029C26.018,56,26.01,56,26,56a4,4,0,0,0-4,4V63a1,1,0,0,0,1,1H41a1,1,0,0,0,1-1V59.995a4,4,0,0,0-4-4c-.011,0-.019.006-.029.006H36v-.684A.963.963,0,0,0,35.936,55H41a1,1,0,0,0,1-1V44.042a10,10,0,0,0-20,0V54a1,1,0,0,0,1,1h5.064a.968.968,0,0,0-.064.318Zm12,3.993V62H24V59.995a2,2,0,0,1,1.98-2c.007,0,.013,0,.02,0h2.859l2.824.941h0a.98.98,0,0,0,.624,0h.005L35.141,58H38c.007,0,.013,0,.02,0A2,2,0,0,1,40,59.995ZM32,36.042a8.009,8.009,0,0,1,8,8V53H24V44.042A8.009,8.009,0,0,1,32,36.042ZM34.064,55a.968.968,0,0,0-.064.318v.956l-2,.667-2-.667v-.956A.963.963,0,0,0,29.936,55Z"/><path d="M37,22a3,3,0,0,0,0,6h6a2.994,2.994,0,0,0,2.815-2H54a1,1,0,0,0,1-1V19h4a1,1,0,0,0,1-1V14a1,1,0,0,0-1-1H49a1,1,0,0,0-1,1v1H45.273L41,12.435V10h2a3,3,0,0,0,0-6H37a3,3,0,0,0,0,6h2v2.435l-4.514,2.709a1,1,0,0,0,0,1.714L39,19.567V22ZM37,6h6a1,1,0,0,1,0,2H37a1,1,0,0,1,0-2Zm0,18h6a1,1,0,0,1,0,2H37a1,1,0,0,1,0-2Zm13-9h8v2H50Zm-10-.833L43.053,16,40,17.835,36.941,16Zm1,5.4L45.273,17H48v1a1,1,0,0,0,1,1h4v5H45.812A3,3,0,0,0,43,22H41Z"/></svg>