<svg xmlns="http://www.w3.org/2000/svg" width="89.441" height="89.441" viewBox="0 0 89.441 89.441"><defs><style>.a{fill:#ec3237;}</style></defs><path class="a" d="M88.044,0h-55.9a1.4,1.4,0,0,0-1.4,1.4V27.949l-8.385,0V26.427a11.174,11.174,0,0,0,5.59-9.654v-4.9a11.822,11.822,0,0,0-3.1-7.974,1.358,1.358,0,0,0-.1-.115A11.861,11.861,0,0,0,4.193,11.878v.693a1.618,1.618,0,0,0,.034.168,1.319,1.319,0,0,0,.055.27,1.412,1.412,0,0,0,.112.242,1.167,1.167,0,0,0,.344.4,1.219,1.219,0,0,0,.214.144,1.38,1.38,0,0,0,.266.1,1.469,1.469,0,0,0,.155.057c.077.013.143.015.219.027v2.8a11.174,11.174,0,0,0,5.59,9.654v1.526H7c-.006,0-.008,0-.014,0A7,7,0,0,0,0,34.938v8.385a1.4,1.4,0,0,0,2.8,0V34.938a4.2,4.2,0,0,1,4.183-4.191h5.031l.978.978c.014.015.034.02.049.032a1.379,1.379,0,0,0,.352.233,1.113,1.113,0,0,0,.12.052,1.412,1.412,0,0,0,.464.091h.011A1.375,1.375,0,0,0,14.551,32c.017-.007.032,0,.049-.011L16.77,30.9l2.17,1.084c.017.008.032,0,.049.011a1.38,1.38,0,0,0,.567.136h.011a1.412,1.412,0,0,0,.464-.091,1.113,1.113,0,0,0,.12-.052,1.379,1.379,0,0,0,.354-.235c.014-.013.034-.018.048-.031l.988-.988,10.6.006s0,0,0,0h1.4a5.6,5.6,0,0,0,5.59-5.59,1.4,1.4,0,0,1,2.8,0,8.394,8.394,0,0,1-8.385,8.385H26.553a1.4,1.4,0,0,0-1.4,1.4v8.385a1.4,1.4,0,0,0,2.8,0V36.336h2.8v6.988a1.4,1.4,0,0,0,1.4,1.4h55.9a1.4,1.4,0,0,0,1.4-1.4V1.4a1.4,1.4,0,0,0-1.4-1.4ZM23.994,7.446a9.042,9.042,0,0,1,.989,2.687,5.74,5.74,0,0,0-1.834-.97ZM16.07,2.8a9.039,9.039,0,0,1,5.983,2.264L19.982,9.277c-.553.162-1.126.379-1.736.619a20.526,20.526,0,0,1-11.23,1.441A9.085,9.085,0,0,1,16.07,2.8ZM8.385,16.763V14.281A22.7,22.7,0,0,0,19.275,12.5c2.636-1.044,3.42-1.343,5.881,1.782v2.486a8.385,8.385,0,0,1-16.77,0ZM16.77,27.939a11.123,11.123,0,0,0,2.8-.369v1.192l-.275.275L17.4,28.09c-.031-.015-.064-.013-.1-.027a1.51,1.51,0,0,0-.273-.074,1.363,1.363,0,0,0-.257-.032,1.47,1.47,0,0,0-.257.032,1.4,1.4,0,0,0-.273.074c-.031.014-.064.011-.1.027l-1.894.948-.278-.275V27.57A11.059,11.059,0,0,0,16.77,27.939ZM86.646,41.926H33.541v-5.59a11.193,11.193,0,0,0,11.18-11.18,4.193,4.193,0,0,0-8.385,0,2.8,2.8,0,0,1-2.8,2.8V2.8H86.646Z"/><path class="a" d="M6.8,33.385V26.4a1.4,1.4,0,0,0-2.8,0v6.988a1.4,1.4,0,0,0,2.8,0Z" transform="translate(1.59 9.938)"/><path class="a" d="M66.36,64.342c-.015,0-.027.008-.041.008H63.565V61.427a11.172,11.172,0,0,0,5.584-9.556c0-.008,0-.017,0-.027,0-.025,0-.048,0-.073V44.8c0-.006,0-.01,0-.014a5.586,5.586,0,0,0-4.2-5.393V36.4a1.4,1.4,0,0,0-1.4-1.4H56.578A9.8,9.8,0,0,0,46.8,44.776h0v7c0,.025,0,.048,0,.073,0,.01,0,.018,0,.027a11.172,11.172,0,0,0,5.584,9.556v2.924H49.631c-.015,0-.027-.008-.041-.008A5.6,5.6,0,0,0,44,69.932v4.2a1.4,1.4,0,0,0,1.4,1.4H70.553a1.4,1.4,0,0,0,1.4-1.4v-4.2a5.6,5.6,0,0,0-5.59-5.589ZM56.578,37.8h5.59v2.8a1.4,1.4,0,0,0,1.4,1.4,2.8,2.8,0,0,1,2.8,2.782s0,0,0,.007V51.4a9.988,9.988,0,0,1-16.77,0v-6.62A7,7,0,0,1,56.578,37.8ZM51.446,57.01a13.066,13.066,0,0,0,13.058,0,8.367,8.367,0,0,1-13.058,0Zm6.529,5.93a11.123,11.123,0,0,0,2.8-.369v1.771H55.18V62.57A11.059,11.059,0,0,0,57.975,62.939Zm-8.413,4.2c.01,0,.018.006.028.006h4.193c.017,0,.029-.01.048-.01h8.29c.018,0,.031.01.048.01H66.36c.01,0,.018-.006.028-.006a2.8,2.8,0,0,1,2.767,2.791v2.8H46.8v-2.8A2.8,2.8,0,0,1,49.562,67.14Z" transform="translate(17.491 13.913)"/><path class="a" d="M1.4,75.528H26.553a1.4,1.4,0,0,0,1.4-1.4v-4.2a5.6,5.6,0,0,0-5.59-5.589c-.015,0-.027.008-.041.008H19.565V61.427a11.172,11.172,0,0,0,5.584-9.556c0-.008,0-.017,0-.027,0-.025,0-.048,0-.073v-5.6a11.18,11.18,0,0,0-22.36,0v5.6c0,.025,0,.048,0,.073,0,.01,0,.018,0,.027a11.172,11.172,0,0,0,5.584,9.555v2.924H5.631c-.015,0-.027-.008-.041-.008A5.6,5.6,0,0,0,0,69.931v4.2a1.4,1.4,0,0,0,1.4,1.4ZM13.975,37.8a8.391,8.391,0,0,1,8.385,8.38V51.4a9.725,9.725,0,0,1-8.385,4.563A9.679,9.679,0,0,1,5.59,51.4V46.175A8.391,8.391,0,0,1,13.975,37.8ZM7.446,57.01a12.5,12.5,0,0,0,6.529,1.748A12.5,12.5,0,0,0,20.5,57.01a8.367,8.367,0,0,1-13.058,0Zm6.529,5.93a11.123,11.123,0,0,0,2.8-.369v1.771H11.18V62.57A11.059,11.059,0,0,0,13.975,62.939Zm-8.413,4.2c.01,0,.018.006.028.006H9.783c.017,0,.029-.01.048-.01h8.29c.018,0,.031.01.048.01H22.36c.01,0,.018-.006.028-.006a2.8,2.8,0,0,1,2.767,2.791v2.8H2.8v-2.8A2.8,2.8,0,0,1,5.562,67.14Z" transform="translate(0 13.913)"/><path class="a" d="M30.385,64.732H27.631c-.015,0-.027-.008-.041-.008A5.6,5.6,0,0,0,22,70.312v4.2a1.4,1.4,0,0,0,1.4,1.4H48.553a1.4,1.4,0,0,0,1.4-1.4v-4.2a5.6,5.6,0,0,0-5.59-5.589c-.015,0-.027.008-.041.008H41.565v-.956a1.346,1.346,0,0,0-.089-.444h7.077a1.4,1.4,0,0,0,1.4-1.4V48.017a13.975,13.975,0,0,0-27.95,0V61.934a1.4,1.4,0,0,0,1.4,1.4h7.077a1.353,1.353,0,0,0-.089.444Zm16.77,5.58v2.8H24.8v-2.8a2.8,2.8,0,0,1,2.767-2.791c.01,0,.018.006.028.006h4l3.947,1.315s.006,0,.007,0a1.369,1.369,0,0,0,.872,0h.007l3.947-1.315h4c.01,0,.018-.006.028-.006A2.8,2.8,0,0,1,47.155,70.312ZM35.975,36.837a11.193,11.193,0,0,1,11.18,11.18V60.536H24.8V48.017A11.193,11.193,0,0,1,35.975,36.837ZM38.86,63.331a1.353,1.353,0,0,0-.089.444v1.336l-2.8.932-2.8-.932V63.776a1.346,1.346,0,0,0-.089-.444Z" transform="translate(8.745 13.532)"/><path class="a" d="M38.191,29.154a4.193,4.193,0,0,0,0,8.385h8.382a4.184,4.184,0,0,0,3.934-2.794H61.951a1.4,1.4,0,0,0,1.4-1.4V24.964h5.59a1.4,1.4,0,0,0,1.4-1.4V17.975a1.4,1.4,0,0,0-1.4-1.4H54.964a1.4,1.4,0,0,0-1.4,1.4v1.4H49.755l-5.976-3.586v-3.4h2.794a4.193,4.193,0,0,0,0-8.385H38.191a4.193,4.193,0,0,0,0,8.385h2.794v3.4l-6.308,3.786a1.4,1.4,0,0,0,0,2.4l6.308,3.786v3.4Zm0-22.359h8.382a1.4,1.4,0,0,1,0,2.8H38.191a1.4,1.4,0,0,1,0-2.8Zm0,25.154h8.382a1.4,1.4,0,0,1,0,2.8H38.191a1.4,1.4,0,0,1,0-2.8ZM56.361,19.373h11.18v2.8H56.361ZM42.382,18.209l4.271,2.563-4.271,2.563-4.271-2.563Zm1.4,7.547,5.976-3.586h3.811v1.4a1.4,1.4,0,0,0,1.4,1.4h5.59V31.95H50.508a4.186,4.186,0,0,0-3.935-2.8H43.779Z" transform="translate(13.515 1.59)"/></svg>