<svg xmlns="http://www.w3.org/2000/svg" width="82.376" height="65" viewBox="0 0 82.376 65"><defs><style>.a{fill:#ec3237;}</style></defs><g transform="translate(0 -54)"><path class="a" d="M34.057,83.5a3.62,3.62,0,1,0,3.615,3.62A3.622,3.622,0,0,0,34.057,83.5Zm0,4.827a1.207,1.207,0,1,1,1.2-1.207A1.206,1.206,0,0,1,34.057,88.327Z" transform="translate(-25.543 -24.754)"/><path class="a" d="M98.932,83.5a3.62,3.62,0,1,0,3.615,3.62A3.622,3.622,0,0,0,98.932,83.5Zm0,4.827a1.207,1.207,0,1,1,1.2-1.207A1.206,1.206,0,0,1,98.932,88.327Z" transform="translate(-79.98 -24.754)"/><path class="a" d="M161.936,83.5a3.62,3.62,0,1,0,3.615,3.62A3.622,3.622,0,0,0,161.936,83.5Zm0,4.827a1.207,1.207,0,1,1,1.2-1.207A1.206,1.206,0,0,1,161.936,88.327Z" transform="translate(-132.848 -24.754)"/><path class="a" d="M266.269,87.12a3.622,3.622,0,0,0-3.616-3.62H228.932a3.62,3.62,0,0,0,0,7.24h33.722A3.622,3.622,0,0,0,266.269,87.12Zm-3.615,1.207H228.932a1.207,1.207,0,0,1,0-2.413h33.722a1.207,1.207,0,0,1,0,2.413Z" transform="translate(-189.065 -24.754)"/><path class="a" d="M282.03,219.94a1.207,1.207,0,1,0-1.974,1.389l3.02,4.293a1.207,1.207,0,0,1-1.975,1.388l-7.257-10.315a2.014,2.014,0,0,0-1.644-.854h0a2.014,2.014,0,0,0-1.644.853l-7.266,10.315a1.207,1.207,0,1,1-1.975-1.388l8.6-12.2a2.016,2.016,0,0,0,0-2.315l-7.271-10.337a1.207,1.207,0,1,1,1.974-1.389l5.945,8.452a2.014,2.014,0,0,0,1.644.854h0a2.013,2.013,0,0,0,1.644-.853l5.954-8.454a1.207,1.207,0,0,1,1.974,1.39L274.493,211.1a2.016,2.016,0,0,0,0,2.315l2.322,3.3a1.207,1.207,0,1,0,1.974-1.389l-2.159-3.069,7.119-10.108a3.62,3.62,0,0,0-5.92-4.17l-5.625,7.986-5.617-7.984a3.62,3.62,0,0,0-5.922,4.166l7.109,10.106-8.432,11.971a3.621,3.621,0,0,0,5.92,4.17l6.938-9.85,6.928,9.848a3.62,3.62,0,0,0,5.922-4.166Z" transform="translate(-217.062 -119.533)"/><path class="a" d="M107.187,196.441a3.624,3.624,0,0,0-3.62,3.62V218.1c0,1.232-.351,2.668-2.954,3.979a5.94,5.94,0,0,1-2.7.605,5.225,5.225,0,0,1-2.893-.814c-2.037-1.3-2.446-2.4-2.446-3.751v-8.4a1.207,1.207,0,1,0-2.413,0v8.4c0,2.461,1.065,4.191,3.56,5.785a7.582,7.582,0,0,0,4.2,1.194,8.317,8.317,0,0,0,3.778-.863c2.881-1.451,4.282-3.458,4.282-6.134v-18.04a1.207,1.207,0,1,1,2.413,0V218.1c0,3.626-1.887,6.415-5.61,8.29a10.707,10.707,0,0,1-4.863,1.121H97.9a10.045,10.045,0,0,1-5.486-1.573c-3.189-2.037-4.674-4.522-4.674-7.819V200.061a1.207,1.207,0,0,1,2.413,0v4.032a1.207,1.207,0,0,0,2.413,0v-4.032a3.62,3.62,0,1,0-7.24,0V218.12c0,4.084,1.947,7.4,5.788,9.852a12.423,12.423,0,0,0,6.783,1.953h.018a13.1,13.1,0,0,0,5.949-1.379c5.734-2.888,6.938-7.274,6.938-10.445v-18.04a3.624,3.624,0,0,0-3.62-3.62Z" transform="translate(-71.602 -119.523)"/><path class="a" d="M76.343,54H6.033A6.04,6.04,0,0,0,0,60.033v52.933A6.04,6.04,0,0,0,6.033,119H76.343a6.04,6.04,0,0,0,6.033-6.033V60.033A6.04,6.04,0,0,0,76.343,54Zm0,62.587H6.033a3.624,3.624,0,0,1-3.62-3.62V70.813H70.47a1.207,1.207,0,0,0,0-2.413H2.413V60.033a3.624,3.624,0,0,1,3.62-3.62H76.343a3.624,3.624,0,0,1,3.62,3.62V68.4H76.1a1.207,1.207,0,1,0,0,2.413h3.861v42.153A3.624,3.624,0,0,1,76.343,116.587Z"/></g></svg>