<svg xmlns="http://www.w3.org/2000/svg" width="85.937" height="82.496" viewBox="0 0 85.937 82.496"><defs><style>.a{fill:#ec3237;}</style></defs><g transform="translate(0 -10.249)"><g transform="translate(0 10.249)"><path class="a" d="M84.258,10.249H1.678A1.679,1.679,0,0,0,0,11.927V29.192A1.679,1.679,0,0,0,1.678,30.87h82.58a1.679,1.679,0,0,0,1.678-1.678V11.927A1.679,1.679,0,0,0,84.258,10.249ZM82.58,27.513H3.357V13.606H82.58Z" transform="translate(0 -10.249)"/></g><g transform="translate(67.266 14.555)"><g transform="translate(0 0)"><path class="a" d="M412.287,45.052l-1.371-1.371a5.358,5.358,0,1,0-2.374,2.374l1.371,1.371a1.678,1.678,0,1,0,2.374-2.374Zm-4.741-2.368a2,2,0,1,1,.587-1.418A1.992,1.992,0,0,1,407.545,42.684Z" transform="translate(-400.765 -35.906)"/></g></g><g transform="translate(56.822 21.92)"><path class="a" d="M341.864,81.136a1.687,1.687,0,0,0-.1-.314,1.708,1.708,0,0,0-.154-.29,1.682,1.682,0,0,0-.208-.255,1.606,1.606,0,0,0-.255-.208,1.658,1.658,0,0,0-.29-.154,1.7,1.7,0,0,0-.314-.1,1.662,1.662,0,0,0-.656,0,1.717,1.717,0,0,0-.859.458,1.786,1.786,0,0,0-.208.255,1.718,1.718,0,0,0-.154.29,1.691,1.691,0,0,0-.1.314,1.7,1.7,0,0,0,0,.656,1.69,1.69,0,0,0,.1.314,1.771,1.771,0,0,0,.154.29,1.8,1.8,0,0,0,.208.255,1.735,1.735,0,0,0,.546.363,1.776,1.776,0,0,0,.314.1,1.672,1.672,0,0,0,.97-.1,1.72,1.72,0,0,0,.29-.154,1.6,1.6,0,0,0,.255-.208,1.693,1.693,0,0,0,.492-1.186A1.671,1.671,0,0,0,341.864,81.136Z" transform="translate(-338.541 -79.786)"/></g><g transform="translate(15.575 21.92)"><path class="a" d="M129.356,79.786H94.472a1.678,1.678,0,0,0,0,3.357h34.884a1.678,1.678,0,0,0,0-3.357Z" transform="translate(-92.794 -79.786)"/></g><g transform="translate(0.198 33.263)"><g transform="translate(0 0)"><path class="a" d="M53.824,147.364H2.859a1.679,1.679,0,0,0-1.678,1.678v33.1a1.678,1.678,0,0,0,1.678,1.678H53.824a1.679,1.679,0,0,0,1.678-1.678v-33.1A1.679,1.679,0,0,0,53.824,147.364Zm-32.4,33.1H7.18l9.595-11.109,6.949,8.046Zm4.2,0,3.13-4.173h8.139a1.678,1.678,0,0,0,0-3.357H31.271l1.178-1.57H42.987l6.825,9.1Zm9.343-12.457,2.752-3.669,2.752,3.669Zm17.179,9.972L39.06,160.532a1.678,1.678,0,0,0-2.686,0L25.786,174.651l-7.74-8.963a1.678,1.678,0,0,0-2.54,0l-10.967,12.7V150.721H52.145Z" transform="translate(-1.181 -147.364)"/></g></g><g transform="translate(17.17 38.547)"><g transform="translate(0 0)"><path class="a" d="M108.229,178.846a5.934,5.934,0,1,0,5.934,5.934A5.94,5.94,0,0,0,108.229,178.846Zm0,8.511a2.577,2.577,0,1,1,2.577-2.577A2.58,2.58,0,0,1,108.229,187.357Z" transform="translate(-102.295 -178.846)"/></g></g><g transform="translate(56.784 33.263)"><g transform="translate(0 0)"><path class="a" d="M365.786,147.364h-25.8a1.679,1.679,0,0,0-1.678,1.678v33.1a1.679,1.679,0,0,0,1.678,1.678h25.8a1.679,1.679,0,0,0,1.678-1.678v-33.1A1.679,1.679,0,0,0,365.786,147.364Zm-1.678,33.1H341.669V150.721h22.439Z" transform="translate(-338.312 -147.364)"/></g></g><g transform="translate(62.37 39.384)"><path class="a" d="M387.9,183.835H373.273a1.678,1.678,0,0,0,0,3.357H387.9a1.678,1.678,0,1,0,0-3.357Z" transform="translate(-371.595 -183.835)"/></g><g transform="translate(62.37 46.121)"><path class="a" d="M387.9,223.969H373.273a1.678,1.678,0,0,0,0,3.357H387.9a1.678,1.678,0,1,0,0-3.357Z" transform="translate(-371.595 -223.969)"/></g><g transform="translate(62.37 52.857)"><g transform="translate(0 0)"><path class="a" d="M387.9,264.1H373.273a1.678,1.678,0,0,0,0,3.357H387.9a1.678,1.678,0,1,0,0-3.357Z" transform="translate(-371.595 -264.103)"/></g></g><g transform="translate(62.37 59.593)"><path class="a" d="M374.916,305.588a1.687,1.687,0,0,0-.1-.314,1.77,1.77,0,0,0-.154-.29,1.676,1.676,0,0,0-2.038-.618,1.785,1.785,0,0,0-.29.154,1.631,1.631,0,0,0-.463.463,1.786,1.786,0,0,0-.154.29,1.69,1.69,0,0,0-.1.314,1.62,1.62,0,0,0,0,.656,1.692,1.692,0,0,0,.1.314,1.775,1.775,0,0,0,.154.29,1.631,1.631,0,0,0,.463.463,1.784,1.784,0,0,0,.29.154,1.692,1.692,0,0,0,.314.1,1.668,1.668,0,0,0,.329.034,1.687,1.687,0,0,0,1.185-.492,1.656,1.656,0,0,0,.364-.545,1.691,1.691,0,0,0,.1-.314,1.7,1.7,0,0,0,0-.656Z" transform="translate(-371.591 -304.238)"/></g><g transform="translate(68.733 59.593)"><g transform="translate(0 0)"><path class="a" d="M419.444,304.236h-8.26a1.678,1.678,0,0,0,0,3.357h8.26a1.678,1.678,0,1,0,0-3.357Z" transform="translate(-409.505 -304.236)"/></g></g><g transform="translate(0.198 72.1)"><path class="a" d="M28.655,378.751H2.859a1.679,1.679,0,0,0-1.678,1.678v17.288A1.679,1.679,0,0,0,2.859,399.4h25.8a1.679,1.679,0,0,0,1.678-1.678V380.429A1.679,1.679,0,0,0,28.655,378.751Zm-1.678,17.288H4.538V382.108H26.977Z" transform="translate(-1.181 -378.751)"/></g><g transform="translate(31.845 72.1)"><path class="a" d="M242.142,378.751H191.406a1.679,1.679,0,0,0-1.678,1.678v17.288a1.679,1.679,0,0,0,1.678,1.678h50.735a1.679,1.679,0,0,0,1.678-1.678V380.429A1.678,1.678,0,0,0,242.142,378.751Zm-1.678,17.288H193.085V382.108h47.378Z" transform="translate(-189.728 -378.751)"/></g><g transform="translate(39.524 80.745)"><path class="a" d="M238.8,431.605a1.7,1.7,0,0,0-.1-.314,1.656,1.656,0,0,0-.154-.29,1.629,1.629,0,0,0-.463-.463,1.664,1.664,0,0,0-.29-.154,1.7,1.7,0,0,0-.314-.1,1.725,1.725,0,0,0-.656,0,1.78,1.78,0,0,0-.314.1,1.712,1.712,0,0,0-.289.154,1.6,1.6,0,0,0-.255.208,1.707,1.707,0,0,0-.21.255,1.654,1.654,0,0,0-.154.29,1.7,1.7,0,0,0-.1.314,1.7,1.7,0,0,0,0,.655,1.754,1.754,0,0,0,.1.315,1.682,1.682,0,0,0,1.551,1.036,1.663,1.663,0,0,0,.327-.032,1.7,1.7,0,0,0,.314-.1,1.551,1.551,0,0,0,.29-.154,1.587,1.587,0,0,0,.255-.208,1.608,1.608,0,0,0,.208-.255,1.7,1.7,0,0,0,.154-.289,1.75,1.75,0,0,0,.1-.316,1.612,1.612,0,0,0,0-.655Z" transform="translate(-235.481 -430.255)"/></g><g transform="translate(45.887 80.744)"><path class="a" d="M303.254,430.252H275.067a1.678,1.678,0,0,0,0,3.357h28.186a1.678,1.678,0,0,0,0-3.357Z" transform="translate(-273.389 -430.252)"/></g></g></svg>